ISO-10303-21;
HEADER;
FILE_DESCRIPTION((''),'2;1');
FILE_NAME('03_SPINDLE','2026-09-08T23:06:13',('acer'),(''),
'CREO PARAMETRIC BY PTC INC, 2025102','CREO PARAMETRIC BY PTC INC, 2025102','');
FILE_SCHEMA(('CONFIG_CONTROL_DESIGN'));
ENDSEC;
DATA;
#1=CARTESIAN_POINT('',(0.E0,0.E0,7.925471502590E0));
#2=DIRECTION('',(0.E0,0.E0,1.E0));
#3=DIRECTION('',(0.E0,1.E0,0.E0));
#4=AXIS2_PLACEMENT_3D('',#1,#2,#3);
#6=CARTESIAN_POINT('',(0.E0,0.E0,7.925471502590E0));
#7=DIRECTION('',(0.E0,0.E0,1.E0));
#8=DIRECTION('',(0.E0,-1.E0,0.E0));
#9=AXIS2_PLACEMENT_3D('',#6,#7,#8);
#11=DIRECTION('',(-1.569518399191E-10,-7.071067811865E-1,-7.071067811865E-1));
#12=VECTOR('',#11,1.414213562476E0);
#13=CARTESIAN_POINT('',(-9.618393668452E-10,1.299999999968E1,8.925471502274E0));
#14=LINE('',#13,#12);
#15=CARTESIAN_POINT('',(0.E0,0.E0,8.925471502590E0));
#16=DIRECTION('',(0.E0,0.E0,1.E0));
#17=DIRECTION('',(0.E0,1.E0,0.E0));
#18=AXIS2_PLACEMENT_3D('',#15,#16,#17);
#20=DIRECTION('',(1.923680856290E-10,6.330509449580E-11,1.E0));
#21=VECTOR('',#20,5.000000000317E0);
#22=CARTESIAN_POINT('',(-9.618393668452E-10,1.299999999968E1,8.925471502274E0));
#23=LINE('',#22,#21);
#24=DIRECTION('',(-1.923673508824E-10,-6.330509449580E-11,1.E0));
#25=VECTOR('',#24,5.000000000317E0);
#26=CARTESIAN_POINT('',(9.618356931126E-10,-1.299999999968E1,8.925471502274E0));
#27=LINE('',#26,#25);
#28=CARTESIAN_POINT('',(0.E0,0.E0,8.925471502590E0));
#29=DIRECTION('',(0.E0,0.E0,1.E0));
#30=DIRECTION('',(0.E0,-1.E0,0.E0));
#31=AXIS2_PLACEMENT_3D('',#28,#29,#30);
#33=DIRECTION('',(1.569517178186E-10,7.071067811865E-1,-7.071067811865E-1));
#34=VECTOR('',#33,1.414213562476E0);
#35=CARTESIAN_POINT('',(9.618356931126E-10,-1.299999999968E1,8.925471502274E0));
#36=LINE('',#35,#34);
#37=CARTESIAN_POINT('',(0.E0,0.E0,1.392547150259E1));
#38=DIRECTION('',(0.E0,0.E0,-1.E0));
#39=DIRECTION('',(0.E0,1.E0,0.E0));
#40=AXIS2_PLACEMENT_3D('',#37,#38,#39);
#42=CARTESIAN_POINT('',(0.E0,0.E0,1.392547150259E1));
#43=DIRECTION('',(0.E0,0.E0,1.E0));
#44=DIRECTION('',(0.E0,1.E0,0.E0));
#45=AXIS2_PLACEMENT_3D('',#42,#43,#44);
#47=CARTESIAN_POINT('',(0.E0,0.E0,1.129254715026E2));
#48=DIRECTION('',(0.E0,0.E0,1.E0));
#49=DIRECTION('',(0.E0,1.E0,0.E0));
#50=AXIS2_PLACEMENT_3D('',#47,#48,#49);
#52=DIRECTION('',(-1.885256453630E-11,6.437553071942E-12,1.E0));
#53=VECTOR('',#52,9.900000000064E1);
#54=CARTESIAN_POINT('',(0.E0,-1.E1,1.392547150259E1));
#55=LINE('',#54,#53);
#56=CARTESIAN_POINT('',(0.E0,0.E0,1.392547150259E1));
#57=DIRECTION('',(0.E0,0.E0,1.E0));
#58=DIRECTION('',(0.E0,1.E0,0.E0));
#59=AXIS2_PLACEMENT_3D('',#56,#57,#58);
#61=DIRECTION('',(1.885256052705E-11,-6.437571014940E-12,1.E0));
#62=VECTOR('',#61,9.900000000064E1);
#63=CARTESIAN_POINT('',(0.E0,1.E1,1.392547150259E1));
#64=LINE('',#63,#62);
#65=DIRECTION('',(-2.639482267365E-10,7.071067811866E-1,-7.071067811865E-1));
#66=VECTOR('',#65,1.414213562553E0);
#67=CARTESIAN_POINT('',(2.239683470684E-9,8.999999999235E0,1.139254715034E2));
#68=LINE('',#67,#66);
#69=CARTESIAN_POINT('',(0.E0,0.E0,1.139254715026E2));
#70=DIRECTION('',(0.E0,0.E0,1.E0));
#71=DIRECTION('',(0.E0,1.E0,0.E0));
#72=AXIS2_PLACEMENT_3D('',#69,#70,#71);
#74=CARTESIAN_POINT('',(0.E0,0.E0,1.139254715026E2));
#75=DIRECTION('',(0.E0,0.E0,1.E0));
#76=DIRECTION('',(0.E0,-1.E0,0.E0));
#77=AXIS2_PLACEMENT_3D('',#74,#75,#76);
#79=DIRECTION('',(2.639494492168E-10,-7.071067811865E-1,-7.071067811865E-1));
#80=VECTOR('',#79,1.414213562553E0);
#81=CARTESIAN_POINT('',(-2.239685596448E-9,-8.999999999235E0,1.139254715034E2));
#82=LINE('',#81,#80);
#83=CARTESIAN_POINT('',(0.E0,0.E0,1.129254715026E2));
#84=DIRECTION('',(0.E0,0.E0,1.E0));
#85=DIRECTION('',(0.E0,-1.E0,0.E0));
#86=AXIS2_PLACEMENT_3D('',#83,#84,#85);
#88=CARTESIAN_POINT('',(0.E0,0.E0,1.392547150259E1));
#89=DIRECTION('',(0.E0,0.E0,-1.E0));
#90=DIRECTION('',(0.E0,1.E0,0.E0));
#91=AXIS2_PLACEMENT_3D('',#88,#89,#90);
#93=CARTESIAN_POINT('',(0.E0,1.3E1,1.392547150259E1));
#94=CARTESIAN_POINT('',(0.E0,-1.3E1,1.392547150259E1));
#95=VERTEX_POINT('',#93);
#96=VERTEX_POINT('',#94);
#97=CARTESIAN_POINT('',(0.E0,1.E1,1.392547150259E1));
#98=CARTESIAN_POINT('',(0.E0,-1.E1,1.392547150259E1));
#99=VERTEX_POINT('',#97);
#100=VERTEX_POINT('',#98);
#101=CARTESIAN_POINT('',(0.E0,9.E0,1.139254715026E2));
#102=CARTESIAN_POINT('',(-1.019797001577E-14,-9.E0,1.139254715026E2));
#103=VERTEX_POINT('',#101);
#104=VERTEX_POINT('',#102);
#105=CARTESIAN_POINT('',(0.E0,1.E1,1.129254715026E2));
#106=CARTESIAN_POINT('',(0.E0,-1.E1,1.129254715026E2));
#107=VERTEX_POINT('',#105);
#108=VERTEX_POINT('',#106);
#109=CARTESIAN_POINT('',(0.E0,1.3E1,8.925471502590E0));
#110=CARTESIAN_POINT('',(0.E0,-1.3E1,8.925471502590E0));
#111=VERTEX_POINT('',#109);
#112=VERTEX_POINT('',#110);
#113=CARTESIAN_POINT('',(0.E0,1.2E1,7.925471502590E0));
#114=CARTESIAN_POINT('',(0.E0,-1.2E1,7.925471502590E0));
#115=VERTEX_POINT('',#113);
#116=VERTEX_POINT('',#114);
#117=CARTESIAN_POINT('',(0.E0,0.E0,7.925471502590E0));
#118=DIRECTION('',(0.E0,0.E0,-1.E0));
#119=DIRECTION('',(0.E0,-1.E0,0.E0));
#120=AXIS2_PLACEMENT_3D('',#117,#118,#119);
#121=PLANE('',#120);
#123=ORIENTED_EDGE('',*,*,#122,.T.);
#125=ORIENTED_EDGE('',*,*,#124,.T.);
#126=EDGE_LOOP('',(#123,#125));
#127=FACE_OUTER_BOUND('',#126,.F.);
#128=ADVANCED_FACE('',(#127),#121,.T.);
#129=CARTESIAN_POINT('',(0.E0,0.E0,8.425471502277E0));
#130=DIRECTION('',(0.E0,0.E0,1.E0));
#131=DIRECTION('',(0.E0,-1.E0,0.E0));
#132=AXIS2_PLACEMENT_3D('',#129,#130,#131);
#133=CONICAL_SURFACE('',#132,1.249999999969E1,4.5E1);
#135=ORIENTED_EDGE('',*,*,#134,.T.);
#137=ORIENTED_EDGE('',*,*,#136,.T.);
#138=ORIENTED_EDGE('',*,*,#122,.F.);
#140=ORIENTED_EDGE('',*,*,#139,.F.);
#141=EDGE_LOOP('',(#135,#137,#138,#140));
#142=FACE_OUTER_BOUND('',#141,.F.);
#143=ADVANCED_FACE('',(#142),#133,.T.);
#144=CARTESIAN_POINT('',(0.E0,0.E0,1.192254715026E2));
#145=DIRECTION('',(0.E0,0.E0,-1.E0));
#146=DIRECTION('',(0.E0,-1.E0,0.E0));
#147=AXIS2_PLACEMENT_3D('',#144,#145,#146);
#148=CYLINDRICAL_SURFACE('',#147,1.3E1);
#149=ORIENTED_EDGE('',*,*,#134,.F.);
#151=ORIENTED_EDGE('',*,*,#150,.T.);
#153=ORIENTED_EDGE('',*,*,#152,.T.);
#155=ORIENTED_EDGE('',*,*,#154,.F.);
#156=EDGE_LOOP('',(#149,#151,#153,#155));
#157=FACE_OUTER_BOUND('',#156,.F.);
#158=ADVANCED_FACE('',(#157),#148,.T.);
#159=CARTESIAN_POINT('',(0.E0,0.E0,1.192254715026E2));
#160=DIRECTION('',(0.E0,0.E0,-1.E0));
#161=DIRECTION('',(0.E0,-1.E0,0.E0));
#162=AXIS2_PLACEMENT_3D('',#159,#160,#161);
#163=CYLINDRICAL_SURFACE('',#162,1.3E1);
#165=ORIENTED_EDGE('',*,*,#164,.F.);
#166=ORIENTED_EDGE('',*,*,#154,.T.);
#168=ORIENTED_EDGE('',*,*,#167,.F.);
#169=ORIENTED_EDGE('',*,*,#150,.F.);
#170=EDGE_LOOP('',(#165,#166,#168,#169));
#171=FACE_OUTER_BOUND('',#170,.F.);
#172=ADVANCED_FACE('',(#171),#163,.T.);
#173=CARTESIAN_POINT('',(0.E0,0.E0,8.425471502277E0));
#174=DIRECTION('',(0.E0,0.E0,1.E0));
#175=DIRECTION('',(0.E0,-1.E0,0.E0));
#176=AXIS2_PLACEMENT_3D('',#173,#174,#175);
#177=CONICAL_SURFACE('',#176,1.249999999969E1,4.5E1);
#178=ORIENTED_EDGE('',*,*,#164,.T.);
#179=ORIENTED_EDGE('',*,*,#139,.T.);
#180=ORIENTED_EDGE('',*,*,#124,.F.);
#181=ORIENTED_EDGE('',*,*,#136,.F.);
#182=EDGE_LOOP('',(#178,#179,#180,#181));
#183=FACE_OUTER_BOUND('',#182,.F.);
#184=ADVANCED_FACE('',(#183),#177,.T.);
#185=CARTESIAN_POINT('',(0.E0,0.E0,1.392547150259E1));
#186=DIRECTION('',(0.E0,0.E0,-1.E0));
#187=DIRECTION('',(0.E0,-1.E0,0.E0));
#188=AXIS2_PLACEMENT_3D('',#185,#186,#187);
#189=PLANE('',#188);
#190=ORIENTED_EDGE('',*,*,#167,.T.);
#191=ORIENTED_EDGE('',*,*,#152,.F.);
#192=EDGE_LOOP('',(#190,#191));
#193=FACE_OUTER_BOUND('',#192,.F.);
#195=ORIENTED_EDGE('',*,*,#194,.T.);
#197=ORIENTED_EDGE('',*,*,#196,.F.);
#198=EDGE_LOOP('',(#195,#197));
#199=FACE_BOUND('',#198,.F.);
#200=ADVANCED_FACE('',(#193,#199),#189,.F.);
#201=CARTESIAN_POINT('',(0.E0,0.E0,1.192254715026E2));
#202=DIRECTION('',(0.E0,0.E0,-1.E0));
#203=DIRECTION('',(0.E0,-1.E0,0.E0));
#204=AXIS2_PLACEMENT_3D('',#201,#202,#203);
#205=CYLINDRICAL_SURFACE('',#204,1.E1);
#207=ORIENTED_EDGE('',*,*,#206,.T.);
#209=ORIENTED_EDGE('',*,*,#208,.F.);
#210=ORIENTED_EDGE('',*,*,#194,.F.);
#212=ORIENTED_EDGE('',*,*,#211,.T.);
#213=EDGE_LOOP('',(#207,#209,#210,#212));
#214=FACE_OUTER_BOUND('',#213,.F.);
#215=ADVANCED_FACE('',(#214),#205,.T.);
#216=CARTESIAN_POINT('',(0.E0,0.E0,1.134254715032E2));
#217=DIRECTION('',(0.E0,0.E0,-1.E0));
#218=DIRECTION('',(0.E0,-1.E0,0.E0));
#219=AXIS2_PLACEMENT_3D('',#216,#217,#218);
#220=CONICAL_SURFACE('',#219,9.499999999353E0,4.5E1);
#222=ORIENTED_EDGE('',*,*,#221,.T.);
#224=ORIENTED_EDGE('',*,*,#223,.T.);
#225=ORIENTED_EDGE('',*,*,#206,.F.);
#227=ORIENTED_EDGE('',*,*,#226,.F.);
#228=EDGE_LOOP('',(#222,#224,#225,#227));
#229=FACE_OUTER_BOUND('',#228,.F.);
#230=ADVANCED_FACE('',(#229),#220,.T.);
#231=CARTESIAN_POINT('',(0.E0,0.E0,1.139254715026E2));
#232=DIRECTION('',(0.E0,0.E0,-1.E0));
#233=DIRECTION('',(0.E0,-1.E0,0.E0));
#234=AXIS2_PLACEMENT_3D('',#231,#232,#233);
#235=PLANE('',#234);
#236=ORIENTED_EDGE('',*,*,#221,.F.);
#238=ORIENTED_EDGE('',*,*,#237,.F.);
#239=EDGE_LOOP('',(#236,#238));
#240=FACE_OUTER_BOUND('',#239,.F.);
#241=ADVANCED_FACE('',(#240),#235,.F.);
#242=CARTESIAN_POINT('',(0.E0,0.E0,1.134254715032E2));
#243=DIRECTION('',(0.E0,0.E0,-1.E0));
#244=DIRECTION('',(0.E0,-1.E0,0.E0));
#245=AXIS2_PLACEMENT_3D('',#242,#243,#244);
#246=CONICAL_SURFACE('',#245,9.499999999353E0,4.5E1);
#247=ORIENTED_EDGE('',*,*,#237,.T.);
#248=ORIENTED_EDGE('',*,*,#226,.T.);
#250=ORIENTED_EDGE('',*,*,#249,.F.);
#251=ORIENTED_EDGE('',*,*,#223,.F.);
#252=EDGE_LOOP('',(#247,#248,#250,#251));
#253=FACE_OUTER_BOUND('',#252,.F.);
#254=ADVANCED_FACE('',(#253),#246,.T.);
#255=CARTESIAN_POINT('',(0.E0,0.E0,1.192254715026E2));
#256=DIRECTION('',(0.E0,0.E0,-1.E0));
#257=DIRECTION('',(0.E0,-1.E0,0.E0));
#258=AXIS2_PLACEMENT_3D('',#255,#256,#257);
#259=CYLINDRICAL_SURFACE('',#258,1.E1);
#260=ORIENTED_EDGE('',*,*,#249,.T.);
#261=ORIENTED_EDGE('',*,*,#211,.F.);
#262=ORIENTED_EDGE('',*,*,#196,.T.);
#263=ORIENTED_EDGE('',*,*,#208,.T.);
#264=EDGE_LOOP('',(#260,#261,#262,#263));
#265=FACE_OUTER_BOUND('',#264,.F.);
#266=ADVANCED_FACE('',(#265),#259,.T.);
#269=CARTESIAN_POINT('',(0.E0,0.E0,1.139254715026E2));
#270=DIRECTION('',(0.E0,0.E0,1.E0));
#271=DIRECTION('',(-1.E0,0.E0,0.E0));
#272=AXIS2_PLACEMENT_3D('',#269,#270,#271);
#274=DIRECTION('',(0.E0,0.E0,-1.E0));
#275=VECTOR('',#274,8.5E1);
#276=CARTESIAN_POINT('',(-9.E0,0.E0,1.139254715026E2));
#277=LINE('',#276,#275);
#278=CARTESIAN_POINT('',(0.E0,0.E0,1.139254715026E2));
#279=DIRECTION('',(0.E0,0.E0,1.E0));
#280=DIRECTION('',(1.E0,0.E0,0.E0));
#281=AXIS2_PLACEMENT_3D('',#278,#279,#280);
#283=DIRECTION('',(0.E0,0.E0,-1.E0));
#284=VECTOR('',#283,8.5E1);
#285=CARTESIAN_POINT('',(9.E0,0.E0,1.139254715026E2));
#286=LINE('',#285,#284);
#287=CARTESIAN_POINT('',(0.E0,0.E0,2.892547150259E1));
#288=DIRECTION('',(0.E0,0.E0,1.E0));
#289=DIRECTION('',(1.E0,0.E0,0.E0));
#290=AXIS2_PLACEMENT_3D('',#287,#288,#289);
#292=CARTESIAN_POINT('',(0.E0,0.E0,2.892547150259E1));
#293=DIRECTION('',(0.E0,0.E0,1.E0));
#294=DIRECTION('',(-1.E0,0.E0,0.E0));
#295=AXIS2_PLACEMENT_3D('',#292,#293,#294);
#297=CARTESIAN_POINT('',(0.E0,0.E0,2.892547150259E1));
#298=DIRECTION('',(0.E0,0.E0,-1.E0));
#299=DIRECTION('',(-1.E0,0.E0,0.E0));
#300=AXIS2_PLACEMENT_3D('',#297,#298,#299);
#302=CARTESIAN_POINT('',(0.E0,0.E0,2.892547150259E1));
#303=DIRECTION('',(0.E0,0.E0,-1.E0));
#304=DIRECTION('',(1.E0,0.E0,0.E0));
#305=AXIS2_PLACEMENT_3D('',#302,#303,#304);
#307=CARTESIAN_POINT('',(9.E0,0.E0,1.139254715026E2));
#308=CARTESIAN_POINT('',(-9.E0,0.E0,1.139254715026E2));
#309=VERTEX_POINT('',#307);
#310=VERTEX_POINT('',#308);
#311=CARTESIAN_POINT('',(9.E0,0.E0,2.892547150259E1));
#312=CARTESIAN_POINT('',(-9.E0,0.E0,2.892547150259E1));
#313=VERTEX_POINT('',#311);
#314=VERTEX_POINT('',#312);
#315=CARTESIAN_POINT('',(1.E1,0.E0,2.892547150259E1));
#316=CARTESIAN_POINT('',(-1.E1,0.E0,2.892547150259E1));
#317=VERTEX_POINT('',#315);
#318=VERTEX_POINT('',#316);
#319=CARTESIAN_POINT('',(0.E0,0.E0,1.139254715026E2));
#320=DIRECTION('',(0.E0,0.E0,1.E0));
#321=DIRECTION('',(1.E0,0.E0,0.E0));
#322=AXIS2_PLACEMENT_3D('',#319,#320,#321);
#323=CYLINDRICAL_SURFACE('',#322,9.E0);
#325=ORIENTED_EDGE('',*,*,#324,.T.);
#327=ORIENTED_EDGE('',*,*,#326,.T.);
#329=ORIENTED_EDGE('',*,*,#328,.F.);
#331=ORIENTED_EDGE('',*,*,#330,.F.);
#332=EDGE_LOOP('',(#325,#327,#329,#331));
#333=FACE_OUTER_BOUND('',#332,.F.);
#334=ADVANCED_FACE('',(#333),#323,.T.);
#335=CARTESIAN_POINT('',(0.E0,0.E0,1.139254715026E2));
#336=DIRECTION('',(0.E0,0.E0,1.E0));
#337=DIRECTION('',(1.E0,0.E0,0.E0));
#338=AXIS2_PLACEMENT_3D('',#335,#336,#337);
#339=CYLINDRICAL_SURFACE('',#338,9.E0);
#341=ORIENTED_EDGE('',*,*,#340,.T.);
#342=ORIENTED_EDGE('',*,*,#330,.T.);
#344=ORIENTED_EDGE('',*,*,#343,.F.);
#345=ORIENTED_EDGE('',*,*,#326,.F.);
#346=EDGE_LOOP('',(#341,#342,#344,#345));
#347=FACE_OUTER_BOUND('',#346,.F.);
#348=ADVANCED_FACE('',(#347),#339,.T.);
#349=CARTESIAN_POINT('',(0.E0,0.E0,2.892547150259E1));
#350=DIRECTION('',(0.E0,0.E0,1.E0));
#351=DIRECTION('',(1.E0,0.E0,0.E0));
#352=AXIS2_PLACEMENT_3D('',#349,#350,#351);
#353=PLANE('',#352);
#355=ORIENTED_EDGE('',*,*,#354,.T.);
#357=ORIENTED_EDGE('',*,*,#356,.T.);
#358=EDGE_LOOP('',(#355,#357));
#359=FACE_OUTER_BOUND('',#358,.F.);
#360=ORIENTED_EDGE('',*,*,#343,.T.);
#361=ORIENTED_EDGE('',*,*,#328,.T.);
#362=EDGE_LOOP('',(#360,#361));
#363=FACE_BOUND('',#362,.F.);
#364=ADVANCED_FACE('',(#359,#363),#353,.T.);
#369=DIMENSIONAL_EXPONENTS(0.E0,0.E0,0.E0,0.E0,0.E0,0.E0,0.E0);
#371=PLANE_ANGLE_MEASURE_WITH_UNIT(PLANE_ANGLE_MEASURE(1.745329251994E-2),#370);
#372=(CONVERSION_BASED_UNIT('DEGREE',#371)NAMED_UNIT(*)PLANE_ANGLE_UNIT());
#374=UNCERTAINTY_MEASURE_WITH_UNIT(LENGTH_MEASURE(1.E-2),#368,'closure',
'Maximum model space distance between geometric entities at asserted connectivities');
#375=(GEOMETRIC_REPRESENTATION_CONTEXT(3)GLOBAL_UNCERTAINTY_ASSIGNED_CONTEXT((
#374))GLOBAL_UNIT_ASSIGNED_CONTEXT((#368,#372,#373))REPRESENTATION_CONTEXT
('ID1','3'));
#378=CARTESIAN_POINT('',(0.E0,0.E0,0.E0));
#379=DIRECTION('',(0.E0,0.E0,1.E0));
#380=DIRECTION('',(1.E0,0.E0,0.E0));
#383=SHAPE_REPRESENTATION_RELATIONSHIP('','',#382,#376);
#384=SHAPE_REPRESENTATION_RELATIONSHIP('','',#382,#377);
#385=APPLICATION_CONTEXT(
'CONFIGURATION CONTROLLED 3D DESIGNS OF MECHANICAL PARTS AND ASSEMBLIES');
#386=APPLICATION_PROTOCOL_DEFINITION('international standard',
'config_control_design',1994,#385);
#387=DESIGN_CONTEXT('',#385,'design');
#388=MECHANICAL_CONTEXT('',#385,'mechanical');
#389=PRODUCT('03_SPINDLE','03_SPINDLE','NOT SPECIFIED',(#388));
#390=PRODUCT_DEFINITION_FORMATION_WITH_SPECIFIED_SOURCE('1','LAST_VERSION',#389,
.MADE.);
#394=PRODUCT_CATEGORY('part','');
#395=PRODUCT_RELATED_PRODUCT_CATEGORY('detail','',(#389));
#396=PRODUCT_CATEGORY_RELATIONSHIP('','',#394,#395);
#397=SECURITY_CLASSIFICATION_LEVEL('unclassified');
#398=SECURITY_CLASSIFICATION('','',#397);
#399=CC_DESIGN_SECURITY_CLASSIFICATION(#398,(#390));
#400=APPROVAL_STATUS('approved');
#401=APPROVAL(#400,'');
#402=CC_DESIGN_APPROVAL(#401,(#398,#390,#391));
#403=CALENDAR_DATE(126,8,9);
#404=COORDINATED_UNIVERSAL_TIME_OFFSET(5,30,.AHEAD.);
#405=LOCAL_TIME(23,6,1.3E1,#404);
#406=DATE_AND_TIME(#403,#405);
#407=APPROVAL_DATE_TIME(#406,#401);
#408=DATE_TIME_ROLE('creation_date');
#409=CC_DESIGN_DATE_AND_TIME_ASSIGNMENT(#406,#408,(#391));
#410=DATE_TIME_ROLE('classification_date');
#411=CC_DESIGN_DATE_AND_TIME_ASSIGNMENT(#406,#410,(#398));
#412=PERSON('UNSPECIFIED','UNSPECIFIED',$,$,$,$);
#413=ORGANIZATION('UNSPECIFIED','UNSPECIFIED','UNSPECIFIED');
#414=PERSON_AND_ORGANIZATION(#412,#413);
#415=APPROVAL_ROLE('approver');
#416=APPROVAL_PERSON_ORGANIZATION(#414,#401,#415);
#417=PERSON_AND_ORGANIZATION_ROLE('creator');
#418=CC_DESIGN_PERSON_AND_ORGANIZATION_ASSIGNMENT(#414,#417,(#390,#391));
#419=PERSON_AND_ORGANIZATION_ROLE('design_supplier');
#420=CC_DESIGN_PERSON_AND_ORGANIZATION_ASSIGNMENT(#414,#419,(#390));
#421=PERSON_AND_ORGANIZATION_ROLE('classification_officer');
#422=CC_DESIGN_PERSON_AND_ORGANIZATION_ASSIGNMENT(#414,#421,(#398));
#423=PERSON_AND_ORGANIZATION_ROLE('design_owner');
#424=CC_DESIGN_PERSON_AND_ORGANIZATION_ASSIGNMENT(#414,#423,(#389));
#5=CIRCLE('',#4,1.2E1);
#10=CIRCLE('',#9,1.2E1);
#19=CIRCLE('',#18,1.3E1);
#32=CIRCLE('',#31,1.3E1);
#41=CIRCLE('',#40,1.3E1);
#46=CIRCLE('',#45,1.3E1);
#51=CIRCLE('',#50,1.E1);
#60=CIRCLE('',#59,1.E1);
#73=CIRCLE('',#72,9.E0);
#78=CIRCLE('',#77,9.E0);
#87=CIRCLE('',#86,1.E1);
#92=CIRCLE('',#91,1.E1);
#122=EDGE_CURVE('',#115,#116,#5,.T.);
#124=EDGE_CURVE('',#116,#115,#10,.T.);
#134=EDGE_CURVE('',#111,#112,#19,.T.);
#136=EDGE_CURVE('',#112,#116,#36,.T.);
#139=EDGE_CURVE('',#111,#115,#14,.T.);
#150=EDGE_CURVE('',#111,#95,#23,.T.);
#152=EDGE_CURVE('',#95,#96,#46,.T.);
#154=EDGE_CURVE('',#112,#96,#27,.T.);
#164=EDGE_CURVE('',#112,#111,#32,.T.);
#167=EDGE_CURVE('',#95,#96,#41,.T.);
#194=EDGE_CURVE('',#99,#100,#60,.T.);
#196=EDGE_CURVE('',#99,#100,#92,.T.);
#206=EDGE_CURVE('',#107,#108,#51,.T.);
#208=EDGE_CURVE('',#100,#108,#55,.T.);
#211=EDGE_CURVE('',#99,#107,#64,.T.);
#221=EDGE_CURVE('',#103,#104,#73,.T.);
#223=EDGE_CURVE('',#104,#108,#82,.T.);
#226=EDGE_CURVE('',#103,#107,#68,.T.);
#237=EDGE_CURVE('',#104,#103,#78,.T.);
#249=EDGE_CURVE('',#108,#107,#87,.T.);
#267=CLOSED_SHELL('',(#128,#143,#158,#172,#184,#200,#215,#230,#241,#254,#266));
#273=CIRCLE('',#272,9.E0);
#282=CIRCLE('',#281,9.E0);
#291=CIRCLE('',#290,9.E0);
#296=CIRCLE('',#295,9.E0);
#301=CIRCLE('',#300,1.E1);
#306=CIRCLE('',#305,1.E1);
#324=EDGE_CURVE('',#310,#309,#273,.T.);
#326=EDGE_CURVE('',#309,#313,#286,.T.);
#328=EDGE_CURVE('',#314,#313,#296,.T.);
#330=EDGE_CURVE('',#310,#314,#277,.T.);
#340=EDGE_CURVE('',#309,#310,#282,.T.);
#343=EDGE_CURVE('',#313,#314,#291,.T.);
#354=EDGE_CURVE('',#318,#317,#301,.T.);
#356=EDGE_CURVE('',#317,#318,#306,.T.);
#365=OPEN_SHELL('',(#334,#348,#364));
#366=MANIFOLD_SOLID_BREP('',#267);
#367=SHELL_BASED_SURFACE_MODEL('',(#365));
#368=(LENGTH_UNIT()NAMED_UNIT(*)SI_UNIT(.MILLI.,.METRE.));
#370=(NAMED_UNIT(*)PLANE_ANGLE_UNIT()SI_UNIT($,.RADIAN.));
#373=(NAMED_UNIT(*)SI_UNIT($,.STERADIAN.)SOLID_ANGLE_UNIT());
#376=ADVANCED_BREP_SHAPE_REPRESENTATION('',(#366),#375);
#377=MANIFOLD_SURFACE_SHAPE_REPRESENTATION('',(#367),#375);
#381=AXIS2_PLACEMENT_3D('',#378,#379,#380);
#382=SHAPE_REPRESENTATION('',(#381),#375);
#391=PRODUCT_DEFINITION('design','',#390,#387);
#392=PRODUCT_DEFINITION_SHAPE('','SHAPE FOR 03_SPINDLE.',#391);
#393=SHAPE_DEFINITION_REPRESENTATION(#392,#382);
ENDSEC;
END-ISO-10303-21;
