ISO-10303-21;
HEADER;
FILE_DESCRIPTION((''),'2;1');
FILE_NAME('08_SETSCREW2','2026-09-08T23:09:31',('acer'),(''),
'CREO PARAMETRIC BY PTC INC, 2025102','CREO PARAMETRIC BY PTC INC, 2025102','');
FILE_SCHEMA(('CONFIG_CONTROL_DESIGN'));
ENDSEC;
DATA;
#1=DIRECTION('',(7.015615937104E-6,-7.071068281848E-1,7.071067341535E-1));
#2=VECTOR('',#1,6.928012378174E0);
#3=CARTESIAN_POINT('',(6.633895233736E-6,2.803028625180E0,-2.095921932700E0));
#4=LINE('',#3,#2);
#5=DIRECTION('',(7.015615936869E-6,7.071068281848E-1,-7.071067341535E-1));
#6=VECTOR('',#5,6.928012378174E0);
#7=CARTESIAN_POINT('',(6.633895233736E-6,-2.803028625180E0,2.095921932700E0));
#8=LINE('',#7,#6);
#9=CARTESIAN_POINT('',(0.E0,0.E0,0.E0));
#10=DIRECTION('',(1.E0,0.E0,0.E0));
#11=DIRECTION('',(0.E0,8.008704757729E-1,-5.988376082338E-1));
#12=AXIS2_PLACEMENT_3D('',#9,#10,#11);
#14=CARTESIAN_POINT('',(5.523816928651E-5,-2.095816233175E0,2.802922274205E0));
#15=CARTESIAN_POINT('',(-8.056832430198E-2,-2.153416541440E0,2.860522582470E0));
#16=CARTESIAN_POINT('',(-2.446120381304E-1,-2.270653140560E0,2.977760291824E0));
#17=CARTESIAN_POINT('',(-4.139605566885E-1,-2.391369626893E0,3.098476408079E0));
#18=CARTESIAN_POINT('',(-5.E-1,-2.452689649487E0,3.159796430674E0));
#20=CARTESIAN_POINT('',(-5.E-1,3.159796430674E0,-2.452689649487E0));
#21=CARTESIAN_POINT('',(-4.137019425296E-1,3.098292094636E0,-2.391185313449E0));
#22=CARTESIAN_POINT('',(-2.440707683892E-1,2.977338306361E0,-2.270231480821E0));
#23=CARTESIAN_POINT('',(-8.035866503817E-2,2.860444374360E0,-2.153337681880E0));
#24=CARTESIAN_POINT('',(6.633895233736E-6,2.803028625180E0,-2.095921932700E0));
#26=CARTESIAN_POINT('',(-1.05E1,0.E0,0.E0));
#27=DIRECTION('',(-1.E0,0.E0,0.E0));
#28=DIRECTION('',(0.E0,0.E0,1.E0));
#29=AXIS2_PLACEMENT_3D('',#26,#27,#28);
#31=DIRECTION('',(-9.999999999061E-1,1.280878925604E-7,-1.370136854514E-5));
#32=VECTOR('',#31,1.000013719535E1);
#33=CARTESIAN_POINT('',(-4.998628950128E-1,-1.351000681135E-6,
-3.999862895012E0));
#34=LINE('',#33,#32);
#35=CARTESIAN_POINT('',(-5.E-1,0.E0,0.E0));
#36=DIRECTION('',(1.E0,0.E0,0.E0));
#37=DIRECTION('',(0.E0,0.E0,-1.E0));
#38=AXIS2_PLACEMENT_3D('',#35,#36,#37);
#40=DIRECTION('',(1.E0,0.E0,0.E0));
#41=VECTOR('',#40,2.E0);
#42=CARTESIAN_POINT('',(-2.5E0,2.452689649487E0,-3.159796430674E0));
#43=LINE('',#42,#41);
#44=CARTESIAN_POINT('',(-2.5E0,0.E0,0.E0));
#45=DIRECTION('',(1.E0,0.E0,0.E0));
#46=DIRECTION('',(0.E0,6.131724123718E-1,-7.899491076684E-1));
#47=AXIS2_PLACEMENT_3D('',#44,#45,#46);
#49=DIRECTION('',(1.E0,0.E0,0.E0));
#50=VECTOR('',#49,2.E0);
#51=CARTESIAN_POINT('',(-2.5E0,3.159796430674E0,-2.452689649487E0));
#52=LINE('',#51,#50);
#53=CARTESIAN_POINT('',(-5.E-1,0.E0,0.E0));
#54=DIRECTION('',(1.E0,0.E0,0.E0));
#55=DIRECTION('',(0.E0,7.899491076684E-1,-6.131724123718E-1));
#56=AXIS2_PLACEMENT_3D('',#53,#54,#55);
#58=DIRECTION('',(7.071067811864E-1,-1.652371358073E-8,7.071067811867E-1));
#59=VECTOR('',#58,7.071068022635E-1);
#60=CARTESIAN_POINT('',(-1.100000010432E1,8.178821190111E-8,3.499999895674E0));
#61=LINE('',#60,#59);
#62=CARTESIAN_POINT('',(-1.1E1,0.E0,0.E0));
#63=DIRECTION('',(-1.E0,0.E0,0.E0));
#64=DIRECTION('',(0.E0,0.E0,-1.E0));
#65=AXIS2_PLACEMENT_3D('',#62,#63,#64);
#67=CARTESIAN_POINT('',(-1.1E1,0.E0,0.E0));
#68=DIRECTION('',(-1.E0,0.E0,0.E0));
#69=DIRECTION('',(0.E0,0.E0,1.E0));
#70=AXIS2_PLACEMENT_3D('',#67,#68,#69);
#72=DIRECTION('',(7.071067811864E-1,1.652371228697E-8,-7.071067811867E-1));
#73=VECTOR('',#72,7.071068022635E-1);
#74=CARTESIAN_POINT('',(-1.100000010432E1,-8.178821182503E-8,
-3.499999895674E0));
#75=LINE('',#74,#73);
#76=CARTESIAN_POINT('',(-1.05E1,0.E0,0.E0));
#77=DIRECTION('',(-1.E0,0.E0,0.E0));
#78=DIRECTION('',(0.E0,0.E0,-1.E0));
#79=AXIS2_PLACEMENT_3D('',#76,#77,#78);
#81=DIRECTION('',(-9.999999999061E-1,-1.280878926151E-7,1.370136854558E-5));
#82=VECTOR('',#81,1.000013719535E1);
#83=CARTESIAN_POINT('',(-4.998628950128E-1,1.351000680843E-6,3.999862895012E0));
#84=LINE('',#83,#82);
#85=CARTESIAN_POINT('',(-5.E-1,0.E0,0.E0));
#86=DIRECTION('',(1.E0,0.E0,0.E0));
#87=DIRECTION('',(0.E0,0.E0,1.E0));
#88=AXIS2_PLACEMENT_3D('',#85,#86,#87);
#90=DIRECTION('',(1.E0,0.E0,0.E0));
#91=VECTOR('',#90,2.E0);
#92=CARTESIAN_POINT('',(-2.5E0,-2.452689649487E0,3.159796430674E0));
#93=LINE('',#92,#91);
#94=CARTESIAN_POINT('',(-2.5E0,0.E0,0.E0));
#95=DIRECTION('',(1.E0,0.E0,0.E0));
#96=DIRECTION('',(0.E0,-6.131724123718E-1,7.899491076684E-1));
#97=AXIS2_PLACEMENT_3D('',#94,#95,#96);
#99=DIRECTION('',(1.E0,0.E0,0.E0));
#100=VECTOR('',#99,2.E0);
#101=CARTESIAN_POINT('',(-2.5E0,-3.159796430674E0,2.452689649487E0));
#102=LINE('',#101,#100);
#103=CARTESIAN_POINT('',(-5.E-1,0.E0,0.E0));
#104=DIRECTION('',(1.E0,0.E0,0.E0));
#105=DIRECTION('',(0.E0,-7.899491076684E-1,6.131724123718E-1));
#106=AXIS2_PLACEMENT_3D('',#103,#104,#105);
#108=DIRECTION('',(0.E0,7.071067811865E-1,-7.071067811865E-1));
#109=VECTOR('',#108,7.937253933194E0);
#110=CARTESIAN_POINT('',(-2.5E0,-3.159796430674E0,2.452689649487E0));
#111=LINE('',#110,#109);
#112=DIRECTION('',(0.E0,-7.071067811865E-1,7.071067811865E-1));
#113=VECTOR('',#112,7.937253933194E0);
#114=CARTESIAN_POINT('',(-2.5E0,3.159796430674E0,-2.452689649487E0));
#115=LINE('',#114,#113);
#116=CARTESIAN_POINT('',(5.523816928488E-5,2.095816233175E0,-2.802922274205E0));
#117=CARTESIAN_POINT('',(-8.056832430198E-2,2.153416541440E0,
-2.860522582470E0));
#118=CARTESIAN_POINT('',(-2.446120381304E-1,2.270653140560E0,
-2.977760291824E0));
#119=CARTESIAN_POINT('',(-4.139605566885E-1,2.391369626893E0,
-3.098476408079E0));
#120=CARTESIAN_POINT('',(-5.E-1,2.452689649487E0,-3.159796430674E0));
#122=CARTESIAN_POINT('',(-5.E-1,-3.159796430674E0,2.452689649487E0));
#123=CARTESIAN_POINT('',(-4.137019425296E-1,-3.098292094636E0,
2.391185313449E0));
#124=CARTESIAN_POINT('',(-2.440707683893E-1,-2.977338306361E0,
2.270231480821E0));
#125=CARTESIAN_POINT('',(-8.035866503817E-2,-2.860444374360E0,
2.153337681880E0));
#126=CARTESIAN_POINT('',(6.633895233736E-6,-2.803028625180E0,2.095921932700E0));
#128=CARTESIAN_POINT('',(0.E0,0.E0,0.E0));
#129=DIRECTION('',(1.E0,0.E0,0.E0));
#130=DIRECTION('',(0.E0,-8.008704757729E-1,5.988376082338E-1));
#131=AXIS2_PLACEMENT_3D('',#128,#129,#130);
#133=CARTESIAN_POINT('',(-2.5E0,2.452689649487E0,-3.159796430674E0));
#134=CARTESIAN_POINT('',(-2.5E0,3.159796430674E0,-2.452689649487E0));
#135=VERTEX_POINT('',#133);
#136=VERTEX_POINT('',#134);
#137=CARTESIAN_POINT('',(-2.5E0,-2.452689649487E0,3.159796430674E0));
#138=CARTESIAN_POINT('',(-2.5E0,-3.159796430674E0,2.452689649487E0));
#139=VERTEX_POINT('',#137);
#140=VERTEX_POINT('',#138);
#141=CARTESIAN_POINT('',(-1.1E1,0.E0,-3.5E0));
#142=CARTESIAN_POINT('',(-1.1E1,0.E0,3.5E0));
#143=VERTEX_POINT('',#141);
#144=VERTEX_POINT('',#142);
#145=CARTESIAN_POINT('',(-1.05E1,0.E0,-4.E0));
#146=CARTESIAN_POINT('',(-1.05E1,0.E0,4.E0));
#147=VERTEX_POINT('',#145);
#148=VERTEX_POINT('',#146);
#149=VERTEX_POINT('',#14);
#150=VERTEX_POINT('',#18);
#151=CARTESIAN_POINT('',(-5.E-1,0.E0,4.E0));
#152=VERTEX_POINT('',#151);
#153=VERTEX_POINT('',#20);
#154=VERTEX_POINT('',#24);
#155=VERTEX_POINT('',#116);
#156=VERTEX_POINT('',#120);
#157=CARTESIAN_POINT('',(-5.E-1,0.E0,-4.E0));
#158=VERTEX_POINT('',#157);
#159=VERTEX_POINT('',#122);
#160=VERTEX_POINT('',#126);
#161=CARTESIAN_POINT('',(0.E0,0.E0,0.E0));
#162=DIRECTION('',(1.E0,0.E0,0.E0));
#163=DIRECTION('',(0.E0,0.E0,-1.E0));
#164=AXIS2_PLACEMENT_3D('',#161,#162,#163);
#165=PLANE('',#164);
#167=ORIENTED_EDGE('',*,*,#166,.F.);
#169=ORIENTED_EDGE('',*,*,#168,.T.);
#170=EDGE_LOOP('',(#167,#169));
#171=FACE_OUTER_BOUND('',#170,.F.);
#172=ADVANCED_FACE('',(#171),#165,.T.);
#173=CARTESIAN_POINT('',(0.E0,0.E0,0.E0));
#174=DIRECTION('',(1.E0,0.E0,0.E0));
#175=DIRECTION('',(0.E0,0.E0,-1.E0));
#176=AXIS2_PLACEMENT_3D('',#173,#174,#175);
#177=PLANE('',#176);
#179=ORIENTED_EDGE('',*,*,#178,.F.);
#181=ORIENTED_EDGE('',*,*,#180,.T.);
#182=EDGE_LOOP('',(#179,#181));
#183=FACE_OUTER_BOUND('',#182,.F.);
#184=ADVANCED_FACE('',(#183),#177,.T.);
#185=CARTESIAN_POINT('',(-2.499505620867E-1,0.E0,0.E0));
#186=DIRECTION('',(-1.E0,0.E0,0.E0));
#187=DIRECTION('',(0.E0,0.E0,-1.E0));
#188=AXIS2_PLACEMENT_3D('',#185,#186,#187);
#189=CONICAL_SURFACE('',#188,3.749950562087E0,4.5E1);
#190=ORIENTED_EDGE('',*,*,#166,.T.);
#192=ORIENTED_EDGE('',*,*,#191,.T.);
#194=ORIENTED_EDGE('',*,*,#193,.F.);
#196=ORIENTED_EDGE('',*,*,#195,.F.);
#198=ORIENTED_EDGE('',*,*,#197,.T.);
#199=EDGE_LOOP('',(#190,#192,#194,#196,#198));
#200=FACE_OUTER_BOUND('',#199,.F.);
#201=ADVANCED_FACE('',(#200),#189,.T.);
#202=CARTESIAN_POINT('',(0.E0,3.181980515339E0,-2.474873734153E0));
#203=DIRECTION('',(0.E0,7.071067811865E-1,7.071067811865E-1));
#204=DIRECTION('',(0.E0,-7.071067811865E-1,7.071067811865E-1));
#205=AXIS2_PLACEMENT_3D('',#202,#203,#204);
#206=PLANE('',#205);
#207=ORIENTED_EDGE('',*,*,#191,.F.);
#208=ORIENTED_EDGE('',*,*,#168,.F.);
#209=ORIENTED_EDGE('',*,*,#197,.F.);
#211=ORIENTED_EDGE('',*,*,#210,.F.);
#213=ORIENTED_EDGE('',*,*,#212,.T.);
#215=ORIENTED_EDGE('',*,*,#214,.T.);
#216=EDGE_LOOP('',(#207,#208,#209,#211,#213,#215));
#217=FACE_OUTER_BOUND('',#216,.F.);
#218=ADVANCED_FACE('',(#217),#206,.F.);
#219=CARTESIAN_POINT('',(0.E0,0.E0,0.E0));
#220=DIRECTION('',(1.E0,0.E0,0.E0));
#221=DIRECTION('',(0.E0,0.E0,-1.E0));
#222=AXIS2_PLACEMENT_3D('',#219,#220,#221);
#223=CYLINDRICAL_SURFACE('',#222,4.E0);
#225=ORIENTED_EDGE('',*,*,#224,.T.);
#227=ORIENTED_EDGE('',*,*,#226,.F.);
#229=ORIENTED_EDGE('',*,*,#228,.T.);
#231=ORIENTED_EDGE('',*,*,#230,.F.);
#233=ORIENTED_EDGE('',*,*,#232,.T.);
#234=ORIENTED_EDGE('',*,*,#210,.T.);
#235=ORIENTED_EDGE('',*,*,#195,.T.);
#237=ORIENTED_EDGE('',*,*,#236,.T.);
#238=EDGE_LOOP('',(#225,#227,#229,#231,#233,#234,#235,#237));
#239=FACE_OUTER_BOUND('',#238,.F.);
#240=ADVANCED_FACE('',(#239),#223,.T.);
#241=CARTESIAN_POINT('',(-1.075000008601E1,0.E0,0.E0));
#242=DIRECTION('',(1.E0,0.E0,0.E0));
#243=DIRECTION('',(0.E0,0.E0,-1.E0));
#244=AXIS2_PLACEMENT_3D('',#241,#242,#243);
#245=CONICAL_SURFACE('',#244,3.749999913988E0,4.5E1);
#247=ORIENTED_EDGE('',*,*,#246,.T.);
#249=ORIENTED_EDGE('',*,*,#248,.T.);
#250=ORIENTED_EDGE('',*,*,#224,.F.);
#252=ORIENTED_EDGE('',*,*,#251,.F.);
#253=EDGE_LOOP('',(#247,#249,#250,#252));
#254=FACE_OUTER_BOUND('',#253,.F.);
#255=ADVANCED_FACE('',(#254),#245,.T.);
#256=CARTESIAN_POINT('',(-1.1E1,0.E0,0.E0));
#257=DIRECTION('',(1.E0,0.E0,0.E0));
#258=DIRECTION('',(0.E0,0.E0,-1.E0));
#259=AXIS2_PLACEMENT_3D('',#256,#257,#258);
#260=PLANE('',#259);
#262=ORIENTED_EDGE('',*,*,#261,.F.);
#263=ORIENTED_EDGE('',*,*,#246,.F.);
#264=EDGE_LOOP('',(#262,#263));
#265=FACE_OUTER_BOUND('',#264,.F.);
#266=ADVANCED_FACE('',(#265),#260,.F.);
#267=CARTESIAN_POINT('',(-1.075000008601E1,0.E0,0.E0));
#268=DIRECTION('',(1.E0,0.E0,0.E0));
#269=DIRECTION('',(0.E0,0.E0,-1.E0));
#270=AXIS2_PLACEMENT_3D('',#267,#268,#269);
#271=CONICAL_SURFACE('',#270,3.749999913988E0,4.5E1);
#272=ORIENTED_EDGE('',*,*,#261,.T.);
#273=ORIENTED_EDGE('',*,*,#251,.T.);
#275=ORIENTED_EDGE('',*,*,#274,.F.);
#276=ORIENTED_EDGE('',*,*,#248,.F.);
#277=EDGE_LOOP('',(#272,#273,#275,#276));
#278=FACE_OUTER_BOUND('',#277,.F.);
#279=ADVANCED_FACE('',(#278),#271,.T.);
#280=CARTESIAN_POINT('',(0.E0,0.E0,0.E0));
#281=DIRECTION('',(1.E0,0.E0,0.E0));
#282=DIRECTION('',(0.E0,0.E0,-1.E0));
#283=AXIS2_PLACEMENT_3D('',#280,#281,#282);
#284=CYLINDRICAL_SURFACE('',#283,4.E0);
#285=ORIENTED_EDGE('',*,*,#274,.T.);
#286=ORIENTED_EDGE('',*,*,#236,.F.);
#287=ORIENTED_EDGE('',*,*,#193,.T.);
#288=ORIENTED_EDGE('',*,*,#214,.F.);
#290=ORIENTED_EDGE('',*,*,#289,.T.);
#292=ORIENTED_EDGE('',*,*,#291,.T.);
#294=ORIENTED_EDGE('',*,*,#293,.T.);
#295=ORIENTED_EDGE('',*,*,#226,.T.);
#296=EDGE_LOOP('',(#285,#286,#287,#288,#290,#292,#294,#295));
#297=FACE_OUTER_BOUND('',#296,.F.);
#298=ADVANCED_FACE('',(#297),#284,.T.);
#299=CARTESIAN_POINT('',(-2.5E0,0.E0,0.E0));
#300=DIRECTION('',(1.E0,0.E0,0.E0));
#301=DIRECTION('',(0.E0,0.E0,-1.E0));
#302=AXIS2_PLACEMENT_3D('',#299,#300,#301);
#303=PLANE('',#302);
#304=ORIENTED_EDGE('',*,*,#232,.F.);
#306=ORIENTED_EDGE('',*,*,#305,.F.);
#307=ORIENTED_EDGE('',*,*,#289,.F.);
#308=ORIENTED_EDGE('',*,*,#212,.F.);
#309=EDGE_LOOP('',(#304,#306,#307,#308));
#310=FACE_OUTER_BOUND('',#309,.F.);
#311=ADVANCED_FACE('',(#310),#303,.T.);
#312=CARTESIAN_POINT('',(0.E0,-3.181980515339E0,2.474873734153E0));
#313=DIRECTION('',(0.E0,-7.071067811865E-1,-7.071067811865E-1));
#314=DIRECTION('',(0.E0,7.071067811865E-1,-7.071067811865E-1));
#315=AXIS2_PLACEMENT_3D('',#312,#313,#314);
#316=PLANE('',#315);
#318=ORIENTED_EDGE('',*,*,#317,.F.);
#319=ORIENTED_EDGE('',*,*,#180,.F.);
#321=ORIENTED_EDGE('',*,*,#320,.F.);
#322=ORIENTED_EDGE('',*,*,#291,.F.);
#323=ORIENTED_EDGE('',*,*,#305,.T.);
#324=ORIENTED_EDGE('',*,*,#230,.T.);
#325=EDGE_LOOP('',(#318,#319,#321,#322,#323,#324));
#326=FACE_OUTER_BOUND('',#325,.F.);
#327=ADVANCED_FACE('',(#326),#316,.F.);
#328=CARTESIAN_POINT('',(-2.499505620867E-1,0.E0,0.E0));
#329=DIRECTION('',(-1.E0,0.E0,0.E0));
#330=DIRECTION('',(0.E0,0.E0,-1.E0));
#331=AXIS2_PLACEMENT_3D('',#328,#329,#330);
#332=CONICAL_SURFACE('',#331,3.749950562087E0,4.5E1);
#333=ORIENTED_EDGE('',*,*,#178,.T.);
#334=ORIENTED_EDGE('',*,*,#317,.T.);
#335=ORIENTED_EDGE('',*,*,#228,.F.);
#336=ORIENTED_EDGE('',*,*,#293,.F.);
#337=ORIENTED_EDGE('',*,*,#320,.T.);
#338=EDGE_LOOP('',(#333,#334,#335,#336,#337));
#339=FACE_OUTER_BOUND('',#338,.F.);
#340=ADVANCED_FACE('',(#339),#332,.T.);
#344=DIMENSIONAL_EXPONENTS(0.E0,0.E0,0.E0,0.E0,0.E0,0.E0,0.E0);
#346=PLANE_ANGLE_MEASURE_WITH_UNIT(PLANE_ANGLE_MEASURE(1.745329251994E-2),#345);
#347=(CONVERSION_BASED_UNIT('DEGREE',#346)NAMED_UNIT(*)PLANE_ANGLE_UNIT());
#349=UNCERTAINTY_MEASURE_WITH_UNIT(LENGTH_MEASURE(1.E-2),#343,'closure',
'Maximum model space distance between geometric entities at asserted connectivities');
#350=(GEOMETRIC_REPRESENTATION_CONTEXT(3)GLOBAL_UNCERTAINTY_ASSIGNED_CONTEXT((
#349))GLOBAL_UNIT_ASSIGNED_CONTEXT((#343,#347,#348))REPRESENTATION_CONTEXT
('ID1','3'));
#352=APPLICATION_CONTEXT(
'CONFIGURATION CONTROLLED 3D DESIGNS OF MECHANICAL PARTS AND ASSEMBLIES');
#353=APPLICATION_PROTOCOL_DEFINITION('international standard',
'config_control_design',1994,#352);
#354=DESIGN_CONTEXT('',#352,'design');
#355=MECHANICAL_CONTEXT('',#352,'mechanical');
#356=PRODUCT('08_SETSCREW2','08_SETSCREW2','NOT SPECIFIED',(#355));
#357=PRODUCT_DEFINITION_FORMATION_WITH_SPECIFIED_SOURCE('2','LAST_VERSION',#356,
.MADE.);
#361=PRODUCT_CATEGORY('part','');
#362=PRODUCT_RELATED_PRODUCT_CATEGORY('detail','',(#356));
#363=PRODUCT_CATEGORY_RELATIONSHIP('','',#361,#362);
#364=SECURITY_CLASSIFICATION_LEVEL('unclassified');
#365=SECURITY_CLASSIFICATION('','',#364);
#366=CC_DESIGN_SECURITY_CLASSIFICATION(#365,(#357));
#367=APPROVAL_STATUS('approved');
#368=APPROVAL(#367,'');
#369=CC_DESIGN_APPROVAL(#368,(#365,#357,#358));
#370=CALENDAR_DATE(126,8,9);
#371=COORDINATED_UNIVERSAL_TIME_OFFSET(5,30,.AHEAD.);
#372=LOCAL_TIME(23,9,3.1E1,#371);
#373=DATE_AND_TIME(#370,#372);
#374=APPROVAL_DATE_TIME(#373,#368);
#375=DATE_TIME_ROLE('creation_date');
#376=CC_DESIGN_DATE_AND_TIME_ASSIGNMENT(#373,#375,(#358));
#377=DATE_TIME_ROLE('classification_date');
#378=CC_DESIGN_DATE_AND_TIME_ASSIGNMENT(#373,#377,(#365));
#379=PERSON('UNSPECIFIED','UNSPECIFIED',$,$,$,$);
#380=ORGANIZATION('UNSPECIFIED','UNSPECIFIED','UNSPECIFIED');
#381=PERSON_AND_ORGANIZATION(#379,#380);
#382=APPROVAL_ROLE('approver');
#383=APPROVAL_PERSON_ORGANIZATION(#381,#368,#382);
#384=PERSON_AND_ORGANIZATION_ROLE('creator');
#385=CC_DESIGN_PERSON_AND_ORGANIZATION_ASSIGNMENT(#381,#384,(#357,#358));
#386=PERSON_AND_ORGANIZATION_ROLE('design_supplier');
#387=CC_DESIGN_PERSON_AND_ORGANIZATION_ASSIGNMENT(#381,#386,(#357));
#388=PERSON_AND_ORGANIZATION_ROLE('classification_officer');
#389=CC_DESIGN_PERSON_AND_ORGANIZATION_ASSIGNMENT(#381,#388,(#365));
#390=PERSON_AND_ORGANIZATION_ROLE('design_owner');
#391=CC_DESIGN_PERSON_AND_ORGANIZATION_ASSIGNMENT(#381,#390,(#356));
#13=CIRCLE('',#12,3.5E0);
#19=B_SPLINE_CURVE_WITH_KNOTS('',3,(#14,#15,#16,#17,#18),.UNSPECIFIED.,.F.,.F.,(
4,1,4),(0.E0,5.E-1,1.E0),.UNSPECIFIED.);
#25=B_SPLINE_CURVE_WITH_KNOTS('',3,(#20,#21,#22,#23,#24),.UNSPECIFIED.,.F.,.F.,(
4,1,4),(0.E0,5.E-1,1.E0),.UNSPECIFIED.);
#30=CIRCLE('',#29,4.E0);
#39=CIRCLE('',#38,4.E0);
#48=CIRCLE('',#47,4.E0);
#57=CIRCLE('',#56,4.E0);
#66=CIRCLE('',#65,3.5E0);
#71=CIRCLE('',#70,3.5E0);
#80=CIRCLE('',#79,4.E0);
#89=CIRCLE('',#88,4.E0);
#98=CIRCLE('',#97,4.E0);
#107=CIRCLE('',#106,4.E0);
#121=B_SPLINE_CURVE_WITH_KNOTS('',3,(#116,#117,#118,#119,#120),.UNSPECIFIED.,
.F.,.F.,(4,1,4),(0.E0,5.E-1,1.E0),.UNSPECIFIED.);
#127=B_SPLINE_CURVE_WITH_KNOTS('',3,(#122,#123,#124,#125,#126),.UNSPECIFIED.,
.F.,.F.,(4,1,4),(0.E0,5.E-1,1.E0),.UNSPECIFIED.);
#132=CIRCLE('',#131,3.5E0);
#166=EDGE_CURVE('',#154,#149,#13,.T.);
#168=EDGE_CURVE('',#154,#149,#4,.T.);
#178=EDGE_CURVE('',#160,#155,#132,.T.);
#180=EDGE_CURVE('',#160,#155,#8,.T.);
#191=EDGE_CURVE('',#149,#150,#19,.T.);
#193=EDGE_CURVE('',#152,#150,#89,.T.);
#195=EDGE_CURVE('',#153,#152,#57,.T.);
#197=EDGE_CURVE('',#153,#154,#25,.T.);
#210=EDGE_CURVE('',#136,#153,#52,.T.);
#212=EDGE_CURVE('',#136,#139,#115,.T.);
#214=EDGE_CURVE('',#139,#150,#93,.T.);
#224=EDGE_CURVE('',#148,#147,#30,.T.);
#226=EDGE_CURVE('',#158,#147,#34,.T.);
#228=EDGE_CURVE('',#158,#156,#39,.T.);
#230=EDGE_CURVE('',#135,#156,#43,.T.);
#232=EDGE_CURVE('',#135,#136,#48,.T.);
#236=EDGE_CURVE('',#152,#148,#84,.T.);
#246=EDGE_CURVE('',#144,#143,#71,.T.);
#248=EDGE_CURVE('',#143,#147,#75,.T.);
#251=EDGE_CURVE('',#144,#148,#61,.T.);
#261=EDGE_CURVE('',#143,#144,#66,.T.);
#274=EDGE_CURVE('',#147,#148,#80,.T.);
#289=EDGE_CURVE('',#139,#140,#98,.T.);
#291=EDGE_CURVE('',#140,#159,#102,.T.);
#293=EDGE_CURVE('',#159,#158,#107,.T.);
#305=EDGE_CURVE('',#140,#135,#111,.T.);
#317=EDGE_CURVE('',#155,#156,#121,.T.);
#320=EDGE_CURVE('',#159,#160,#127,.T.);
#341=CLOSED_SHELL('',(#172,#184,#201,#218,#240,#255,#266,#279,#298,#311,#327,
#340));
#342=MANIFOLD_SOLID_BREP('',#341);
#343=(LENGTH_UNIT()NAMED_UNIT(*)SI_UNIT(.MILLI.,.METRE.));
#345=(NAMED_UNIT(*)PLANE_ANGLE_UNIT()SI_UNIT($,.RADIAN.));
#348=(NAMED_UNIT(*)SI_UNIT($,.STERADIAN.)SOLID_ANGLE_UNIT());
#351=ADVANCED_BREP_SHAPE_REPRESENTATION('',(#342),#350);
#358=PRODUCT_DEFINITION('design','',#357,#354);
#359=PRODUCT_DEFINITION_SHAPE('','SHAPE FOR 08_SETSCREW2.',#358);
#360=SHAPE_DEFINITION_REPRESENTATION(#359,#351);
ENDSEC;
END-ISO-10303-21;
