ISO-10303-21;
HEADER;
FILE_DESCRIPTION((''),'2;1');
FILE_NAME('10_BUSH','2026-09-08T23:10:20',('acer'),(''),
'CREO PARAMETRIC BY PTC INC, 2025102','CREO PARAMETRIC BY PTC INC, 2025102','');
FILE_SCHEMA(('CONFIG_CONTROL_DESIGN'));
ENDSEC;
DATA;
#1=CARTESIAN_POINT('',(-2.7E1,0.E0,0.E0));
#2=DIRECTION('',(-1.E0,0.E0,0.E0));
#3=DIRECTION('',(0.E0,0.E0,-1.E0));
#4=AXIS2_PLACEMENT_3D('',#1,#2,#3);
#6=CARTESIAN_POINT('',(-2.7E1,0.E0,0.E0));
#7=DIRECTION('',(-1.E0,0.E0,0.E0));
#8=DIRECTION('',(0.E0,0.E0,1.E0));
#9=AXIS2_PLACEMENT_3D('',#6,#7,#8);
#11=CARTESIAN_POINT('',(-2.7E1,3.380025165647E-14,0.E0));
#12=DIRECTION('',(-1.E0,0.E0,0.E0));
#13=DIRECTION('',(0.E0,0.E0,-1.E0));
#14=AXIS2_PLACEMENT_3D('',#11,#12,#13);
#16=CARTESIAN_POINT('',(-2.7E1,0.E0,0.E0));
#17=DIRECTION('',(-1.E0,0.E0,0.E0));
#18=DIRECTION('',(0.E0,0.E0,1.E0));
#19=AXIS2_PLACEMENT_3D('',#16,#17,#18);
#21=DIRECTION('',(1.E0,0.E0,0.E0));
#22=VECTOR('',#21,5.4E1);
#23=CARTESIAN_POINT('',(-2.7E1,0.E0,-9.E0));
#24=LINE('',#23,#22);
#25=DIRECTION('',(1.E0,0.E0,0.E0));
#26=VECTOR('',#25,5.4E1);
#27=CARTESIAN_POINT('',(-2.7E1,0.E0,9.E0));
#28=LINE('',#27,#26);
#29=CARTESIAN_POINT('',(-1.5E0,9.E0,0.E0));
#30=CARTESIAN_POINT('',(-1.5E0,9.E0,1.270759165282E-1));
#31=CARTESIAN_POINT('',(-1.469393109855E0,8.994808227107E0,3.743651932219E-1));
#32=CARTESIAN_POINT('',(-1.323012499584E0,8.971546542761E0,7.426073753435E-1));
#33=CARTESIAN_POINT('',(-1.091358896780E0,8.939693997013E0,1.052192986844E0));
#34=CARTESIAN_POINT('',(-7.932699979663E-1,8.907468897703E0,1.292604235142E0));
#35=CARTESIAN_POINT('',(-4.331332437332E-1,8.881970931965E0,1.454161272846E0));
#36=CARTESIAN_POINT('',(-4.024368563383E-2,8.871162881023E0,1.517187049303E0));
#37=CARTESIAN_POINT('',(3.624760434453E-1,8.878599426821E0,1.474109294125E0));
#38=CARTESIAN_POINT('',(7.377912523470E-1,8.902445088182E0,1.326424459545E0));
#39=CARTESIAN_POINT('',(1.059253087669E0,8.935605500134E0,1.086437005527E0));
#40=CARTESIAN_POINT('',(1.308543460609E0,8.969314340470E0,7.713940523339E-1));
#41=CARTESIAN_POINT('',(1.468892119993E0,8.994697917447E0,3.828087316541E-1));
#42=CARTESIAN_POINT('',(1.5E0,9.E0,1.295868017228E-1));
#43=CARTESIAN_POINT('',(1.5E0,9.E0,0.E0));
#45=CARTESIAN_POINT('',(1.5E0,9.E0,0.E0));
#46=CARTESIAN_POINT('',(1.5E0,9.E0,-1.267019166670E-1));
#47=CARTESIAN_POINT('',(1.469554811373E0,8.994836538850E0,-3.733448446433E-1));
#48=CARTESIAN_POINT('',(1.324004962698E0,8.971699228005E0,-7.406764796929E-1));
#49=CARTESIAN_POINT('',(1.093249739965E0,8.939933982488E0,-1.050163893493E0));
#50=CARTESIAN_POINT('',(7.961643963805E-1,8.907741148341E0,-1.290743457905E0));
#51=CARTESIAN_POINT('',(4.372329703832E-1,8.882188781285E0,-1.452855491050E0));
#52=CARTESIAN_POINT('',(4.520577076285E-2,8.871192334293E0,-1.517018721226E0));
#53=CARTESIAN_POINT('',(-3.577700867366E-1,8.878396127567E0,-1.475305015340E0));
#54=CARTESIAN_POINT('',(-7.342843489289E-1,8.902135937733E0,-1.328470663385E0));
#55=CARTESIAN_POINT('',(-1.057218651318E0,8.935349494796E0,-1.088565698401E0));
#56=CARTESIAN_POINT('',(-1.307738740317E0,8.969189926355E0,-7.729494739520E-1));
#57=CARTESIAN_POINT('',(-1.468751040233E0,8.994673644230E0,-3.836390274438E-1));
#58=CARTESIAN_POINT('',(-1.5E0,9.E0,-1.298751819014E-1));
#59=CARTESIAN_POINT('',(-1.5E0,9.E0,0.E0));
#61=CARTESIAN_POINT('',(2.7E1,0.E0,0.E0));
#62=DIRECTION('',(-1.E0,0.E0,0.E0));
#63=DIRECTION('',(0.E0,0.E0,-1.E0));
#64=AXIS2_PLACEMENT_3D('',#61,#62,#63);
#66=CARTESIAN_POINT('',(2.7E1,0.E0,0.E0));
#67=DIRECTION('',(-1.E0,0.E0,0.E0));
#68=DIRECTION('',(0.E0,0.E0,1.E0));
#69=AXIS2_PLACEMENT_3D('',#66,#67,#68);
#71=CARTESIAN_POINT('',(2.7E1,3.380025165647E-14,0.E0));
#72=DIRECTION('',(1.E0,0.E0,0.E0));
#73=DIRECTION('',(0.E0,0.E0,1.E0));
#74=AXIS2_PLACEMENT_3D('',#71,#72,#73);
#76=CARTESIAN_POINT('',(2.7E1,0.E0,0.E0));
#77=DIRECTION('',(1.E0,0.E0,0.E0));
#78=DIRECTION('',(0.E0,0.E0,-1.E0));
#79=AXIS2_PLACEMENT_3D('',#76,#77,#78);
#81=DIRECTION('',(-7.071067811865E-1,4.946459102174E-9,7.071067811866E-1));
#82=VECTOR('',#81,7.071067818195E-1);
#83=CARTESIAN_POINT('',(2.700000000206E1,-1.608930397485E-8,1.149999999794E1));
#84=LINE('',#83,#82);
#85=DIRECTION('',(-7.071067811865E-1,-4.946462472288E-9,-7.071067811866E-1));
#86=VECTOR('',#85,7.071067818195E-1);
#87=CARTESIAN_POINT('',(2.700000000206E1,1.608930661377E-8,-1.149999999794E1));
#88=LINE('',#87,#86);
#89=CARTESIAN_POINT('',(2.65E1,0.E0,0.E0));
#90=DIRECTION('',(1.E0,0.E0,0.E0));
#91=DIRECTION('',(0.E0,0.E0,-1.E0));
#92=AXIS2_PLACEMENT_3D('',#89,#90,#91);
#94=CARTESIAN_POINT('',(-2.65E1,0.E0,0.E0));
#95=DIRECTION('',(-1.E0,0.E0,0.E0));
#96=DIRECTION('',(0.E0,0.E0,1.E0));
#97=AXIS2_PLACEMENT_3D('',#94,#95,#96);
#99=DIRECTION('',(1.E0,0.E0,0.E0));
#100=VECTOR('',#99,5.300000000322E1);
#101=CARTESIAN_POINT('',(-2.650000000161E1,1.259162933775E-8,
-1.199999999839E1));
#102=LINE('',#101,#100);
#103=CARTESIAN_POINT('',(1.5E0,1.2E1,0.E0));
#104=CARTESIAN_POINT('',(1.5E0,1.2E1,1.297629924518E-1));
#105=CARTESIAN_POINT('',(1.468839472393E0,1.199601502460E1,3.832342292974E-1));
#106=CARTESIAN_POINT('',(1.307965364504E0,1.197693041498E1,7.725152054710E-1));
#107=CARTESIAN_POINT('',(1.057917117571E0,1.195164692740E1,1.087828273783E0));
#108=CARTESIAN_POINT('',(7.353513639528E-1,1.192683983887E1,1.327881608836E0));
#109=CARTESIAN_POINT('',(3.588007890806E-1,1.190909582445E1,1.475082461717E0));
#110=CARTESIAN_POINT('',(-4.460095452269E-2,1.190369003694E1,1.517091365597E0));
#111=CARTESIAN_POINT('',(-4.373313962201E-1,1.191189148870E1,1.452883811725E0));
#112=CARTESIAN_POINT('',(-7.966239352017E-1,1.193098622101E1,1.290482868100E0));
#113=CARTESIAN_POINT('',(-1.093613217958E0,1.195504463528E1,1.049762753649E0));
#114=CARTESIAN_POINT('',(-1.324147288979E0,1.197880063627E1,7.403990176270E-1));
#115=CARTESIAN_POINT('',(-1.469606356901E0,1.199613295167E1,3.730917361299E-1));
#116=CARTESIAN_POINT('',(-1.5E0,1.2E1,1.266389367017E-1));
#117=CARTESIAN_POINT('',(-1.5E0,1.2E1,0.E0));
#119=CARTESIAN_POINT('',(-1.5E0,1.2E1,0.E0));
#120=CARTESIAN_POINT('',(-1.5E0,1.2E1,-1.300459059944E-1));
#121=CARTESIAN_POINT('',(-1.468701609665E0,1.199599721263E1,
-3.840503588362E-1));
#122=CARTESIAN_POINT('',(-1.307166075140E0,1.197683782272E1,
-7.740591468878E-1));
#123=CARTESIAN_POINT('',(-1.055890961536E0,1.195145643059E1,-1.089943669291E0));
#124=CARTESIAN_POINT('',(-7.318523467767E-1,1.192661016943E1,
-1.329916119734E0));
#125=CARTESIAN_POINT('',(-3.540884037891E-1,1.190894536213E1,
-1.476269026208E0));
#126=CARTESIAN_POINT('',(4.958444356155E-2,1.190371372073E1,-1.516909724304E0));
#127=CARTESIAN_POINT('',(4.414666997062E-1,1.191205653343E1,-1.451555729288E0));
#128=CARTESIAN_POINT('',(7.995561853031E-1,1.193119286822E1,-1.288588217534E0));
#129=CARTESIAN_POINT('',(1.095526023453E0,1.195522661176E1,-1.047699410210E0));
#130=CARTESIAN_POINT('',(1.325143316358E0,1.197891554604E1,-7.384519466788E-1));
#131=CARTESIAN_POINT('',(1.469769265769E0,1.199615433318E1,-3.720624985227E-1));
#132=CARTESIAN_POINT('',(1.5E0,1.2E1,-1.262620105811E-1));
#133=CARTESIAN_POINT('',(1.5E0,1.2E1,0.E0));
#135=CARTESIAN_POINT('',(2.65E1,0.E0,0.E0));
#136=DIRECTION('',(1.E0,0.E0,0.E0));
#137=DIRECTION('',(0.E0,0.E0,1.E0));
#138=AXIS2_PLACEMENT_3D('',#135,#136,#137);
#140=CARTESIAN_POINT('',(-2.65E1,0.E0,0.E0));
#141=DIRECTION('',(-1.E0,0.E0,0.E0));
#142=DIRECTION('',(0.E0,0.E0,-1.E0));
#143=AXIS2_PLACEMENT_3D('',#140,#141,#142);
#145=DIRECTION('',(1.E0,0.E0,0.E0));
#146=VECTOR('',#145,5.300000000322E1);
#147=CARTESIAN_POINT('',(-2.650000000161E1,-1.259162653317E-8,
1.199999999839E1));
#148=LINE('',#147,#146);
#149=DIRECTION('',(7.071067811865E-1,-4.946460524413E-9,-7.071067811866E-1));
#150=VECTOR('',#149,7.071067818195E-1);
#151=CARTESIAN_POINT('',(-2.700000000206E1,1.608930512056E-8,
-1.149999999794E1));
#152=LINE('',#151,#150);
#153=DIRECTION('',(7.071067811865E-1,4.946467685346E-9,7.071067811866E-1));
#154=VECTOR('',#153,7.071067818195E-1);
#155=CARTESIAN_POINT('',(-2.700000000206E1,-1.608930737953E-8,
1.149999999794E1));
#156=LINE('',#155,#154);
#157=DIRECTION('',(0.E0,-1.E0,0.E0));
#158=VECTOR('',#157,3.E0);
#159=CARTESIAN_POINT('',(1.5E0,1.2E1,0.E0));
#160=LINE('',#159,#158);
#161=DIRECTION('',(0.E0,-1.E0,0.E0));
#162=VECTOR('',#161,3.E0);
#163=CARTESIAN_POINT('',(-1.5E0,1.2E1,0.E0));
#164=LINE('',#163,#162);
#165=CARTESIAN_POINT('',(-2.7E1,0.E0,-9.E0));
#166=CARTESIAN_POINT('',(-2.7E1,0.E0,9.E0));
#167=VERTEX_POINT('',#165);
#168=VERTEX_POINT('',#166);
#169=CARTESIAN_POINT('',(2.7E1,0.E0,-9.E0));
#170=CARTESIAN_POINT('',(2.7E1,0.E0,9.E0));
#171=VERTEX_POINT('',#169);
#172=VERTEX_POINT('',#170);
#173=CARTESIAN_POINT('',(2.7E1,0.E0,1.15E1));
#174=CARTESIAN_POINT('',(2.7E1,0.E0,-1.15E1));
#175=VERTEX_POINT('',#173);
#176=VERTEX_POINT('',#174);
#177=CARTESIAN_POINT('',(2.65E1,0.E0,1.2E1));
#178=CARTESIAN_POINT('',(2.65E1,0.E0,-1.2E1));
#179=VERTEX_POINT('',#177);
#180=VERTEX_POINT('',#178);
#181=CARTESIAN_POINT('',(-2.7E1,0.E0,-1.15E1));
#182=CARTESIAN_POINT('',(-2.7E1,0.E0,1.15E1));
#183=VERTEX_POINT('',#181);
#184=VERTEX_POINT('',#182);
#185=CARTESIAN_POINT('',(-2.65E1,0.E0,-1.2E1));
#186=CARTESIAN_POINT('',(-2.65E1,0.E0,1.2E1));
#187=VERTEX_POINT('',#185);
#188=VERTEX_POINT('',#186);
#189=VERTEX_POINT('',#29);
#190=VERTEX_POINT('',#43);
#191=VERTEX_POINT('',#103);
#192=VERTEX_POINT('',#117);
#193=CARTESIAN_POINT('',(-2.7E1,0.E0,0.E0));
#194=DIRECTION('',(1.E0,0.E0,0.E0));
#195=DIRECTION('',(0.E0,0.E0,-1.E0));
#196=AXIS2_PLACEMENT_3D('',#193,#194,#195);
#197=PLANE('',#196);
#199=ORIENTED_EDGE('',*,*,#198,.F.);
#201=ORIENTED_EDGE('',*,*,#200,.F.);
#202=EDGE_LOOP('',(#199,#201));
#203=FACE_OUTER_BOUND('',#202,.F.);
#205=ORIENTED_EDGE('',*,*,#204,.T.);
#207=ORIENTED_EDGE('',*,*,#206,.T.);
#208=EDGE_LOOP('',(#205,#207));
#209=FACE_BOUND('',#208,.F.);
#210=ADVANCED_FACE('',(#203,#209),#197,.F.);
#211=CARTESIAN_POINT('',(-2.7E1,0.E0,0.E0));
#212=DIRECTION('',(1.E0,0.E0,0.E0));
#213=DIRECTION('',(0.E0,0.E0,-1.E0));
#214=AXIS2_PLACEMENT_3D('',#211,#212,#213);
#215=CYLINDRICAL_SURFACE('',#214,9.E0);
#216=ORIENTED_EDGE('',*,*,#204,.F.);
#218=ORIENTED_EDGE('',*,*,#217,.T.);
#220=ORIENTED_EDGE('',*,*,#219,.T.);
#222=ORIENTED_EDGE('',*,*,#221,.F.);
#223=EDGE_LOOP('',(#216,#218,#220,#222));
#224=FACE_OUTER_BOUND('',#223,.F.);
#225=ADVANCED_FACE('',(#224),#215,.F.);
#226=CARTESIAN_POINT('',(-2.7E1,0.E0,0.E0));
#227=DIRECTION('',(1.E0,0.E0,0.E0));
#228=DIRECTION('',(0.E0,0.E0,-1.E0));
#229=AXIS2_PLACEMENT_3D('',#226,#227,#228);
#230=CYLINDRICAL_SURFACE('',#229,9.E0);
#231=ORIENTED_EDGE('',*,*,#206,.F.);
#232=ORIENTED_EDGE('',*,*,#221,.T.);
#234=ORIENTED_EDGE('',*,*,#233,.T.);
#235=ORIENTED_EDGE('',*,*,#217,.F.);
#236=EDGE_LOOP('',(#231,#232,#234,#235));
#237=FACE_OUTER_BOUND('',#236,.F.);
#239=ORIENTED_EDGE('',*,*,#238,.F.);
#241=ORIENTED_EDGE('',*,*,#240,.F.);
#242=EDGE_LOOP('',(#239,#241));
#243=FACE_BOUND('',#242,.F.);
#244=ADVANCED_FACE('',(#237,#243),#230,.F.);
#245=CARTESIAN_POINT('',(2.7E1,0.E0,0.E0));
#246=DIRECTION('',(1.E0,0.E0,0.E0));
#247=DIRECTION('',(0.E0,0.E0,-1.E0));
#248=AXIS2_PLACEMENT_3D('',#245,#246,#247);
#249=PLANE('',#248);
#251=ORIENTED_EDGE('',*,*,#250,.F.);
#253=ORIENTED_EDGE('',*,*,#252,.F.);
#254=EDGE_LOOP('',(#251,#253));
#255=FACE_OUTER_BOUND('',#254,.F.);
#256=ORIENTED_EDGE('',*,*,#219,.F.);
#257=ORIENTED_EDGE('',*,*,#233,.F.);
#258=EDGE_LOOP('',(#256,#257));
#259=FACE_BOUND('',#258,.F.);
#260=ADVANCED_FACE('',(#255,#259),#249,.T.);
#261=CARTESIAN_POINT('',(2.675000000178E1,3.380025165647E-14,0.E0));
#262=DIRECTION('',(-1.E0,0.E0,0.E0));
#263=DIRECTION('',(0.E0,0.E0,-1.E0));
#264=AXIS2_PLACEMENT_3D('',#261,#262,#263);
#265=CONICAL_SURFACE('',#264,1.174999999822E1,4.5E1);
#266=ORIENTED_EDGE('',*,*,#250,.T.);
#268=ORIENTED_EDGE('',*,*,#267,.T.);
#270=ORIENTED_EDGE('',*,*,#269,.F.);
#272=ORIENTED_EDGE('',*,*,#271,.F.);
#273=EDGE_LOOP('',(#266,#268,#270,#272));
#274=FACE_OUTER_BOUND('',#273,.F.);
#275=ADVANCED_FACE('',(#274),#265,.T.);
#276=CARTESIAN_POINT('',(2.675000000178E1,0.E0,0.E0));
#277=DIRECTION('',(-1.E0,0.E0,0.E0));
#278=DIRECTION('',(0.E0,0.E0,-1.E0));
#279=AXIS2_PLACEMENT_3D('',#276,#277,#278);
#280=CONICAL_SURFACE('',#279,1.174999999822E1,4.5E1);
#281=ORIENTED_EDGE('',*,*,#252,.T.);
#282=ORIENTED_EDGE('',*,*,#271,.T.);
#284=ORIENTED_EDGE('',*,*,#283,.F.);
#285=ORIENTED_EDGE('',*,*,#267,.F.);
#286=EDGE_LOOP('',(#281,#282,#284,#285));
#287=FACE_OUTER_BOUND('',#286,.F.);
#288=ADVANCED_FACE('',(#287),#280,.T.);
#289=CARTESIAN_POINT('',(-2.7E1,0.E0,0.E0));
#290=DIRECTION('',(1.E0,0.E0,0.E0));
#291=DIRECTION('',(0.E0,0.E0,-1.E0));
#292=AXIS2_PLACEMENT_3D('',#289,#290,#291);
#293=CYLINDRICAL_SURFACE('',#292,1.2E1);
#294=ORIENTED_EDGE('',*,*,#283,.T.);
#296=ORIENTED_EDGE('',*,*,#295,.F.);
#298=ORIENTED_EDGE('',*,*,#297,.T.);
#300=ORIENTED_EDGE('',*,*,#299,.T.);
#301=EDGE_LOOP('',(#294,#296,#298,#300));
#302=FACE_OUTER_BOUND('',#301,.F.);
#304=ORIENTED_EDGE('',*,*,#303,.F.);
#306=ORIENTED_EDGE('',*,*,#305,.F.);
#307=EDGE_LOOP('',(#304,#306));
#308=FACE_BOUND('',#307,.F.);
#309=ADVANCED_FACE('',(#302,#308),#293,.T.);
#310=CARTESIAN_POINT('',(-2.7E1,0.E0,0.E0));
#311=DIRECTION('',(1.E0,0.E0,0.E0));
#312=DIRECTION('',(0.E0,0.E0,-1.E0));
#313=AXIS2_PLACEMENT_3D('',#310,#311,#312);
#314=CYLINDRICAL_SURFACE('',#313,1.2E1);
#315=ORIENTED_EDGE('',*,*,#269,.T.);
#316=ORIENTED_EDGE('',*,*,#299,.F.);
#318=ORIENTED_EDGE('',*,*,#317,.T.);
#319=ORIENTED_EDGE('',*,*,#295,.T.);
#320=EDGE_LOOP('',(#315,#316,#318,#319));
#321=FACE_OUTER_BOUND('',#320,.F.);
#322=ADVANCED_FACE('',(#321),#314,.T.);
#323=CARTESIAN_POINT('',(-2.675000000178E1,3.380025165647E-14,0.E0));
#324=DIRECTION('',(1.E0,0.E0,0.E0));
#325=DIRECTION('',(0.E0,0.E0,-1.E0));
#326=AXIS2_PLACEMENT_3D('',#323,#324,#325);
#327=CONICAL_SURFACE('',#326,1.174999999822E1,4.5E1);
#328=ORIENTED_EDGE('',*,*,#198,.T.);
#330=ORIENTED_EDGE('',*,*,#329,.T.);
#331=ORIENTED_EDGE('',*,*,#317,.F.);
#333=ORIENTED_EDGE('',*,*,#332,.F.);
#334=EDGE_LOOP('',(#328,#330,#331,#333));
#335=FACE_OUTER_BOUND('',#334,.F.);
#336=ADVANCED_FACE('',(#335),#327,.T.);
#337=CARTESIAN_POINT('',(-2.675000000178E1,0.E0,0.E0));
#338=DIRECTION('',(1.E0,0.E0,0.E0));
#339=DIRECTION('',(0.E0,0.E0,-1.E0));
#340=AXIS2_PLACEMENT_3D('',#337,#338,#339);
#341=CONICAL_SURFACE('',#340,1.174999999822E1,4.5E1);
#342=ORIENTED_EDGE('',*,*,#200,.T.);
#343=ORIENTED_EDGE('',*,*,#332,.T.);
#344=ORIENTED_EDGE('',*,*,#297,.F.);
#345=ORIENTED_EDGE('',*,*,#329,.F.);
#346=EDGE_LOOP('',(#342,#343,#344,#345));
#347=FACE_OUTER_BOUND('',#346,.F.);
#348=ADVANCED_FACE('',(#347),#341,.T.);
#349=CARTESIAN_POINT('',(0.E0,1.2E1,0.E0));
#350=DIRECTION('',(0.E0,-1.E0,0.E0));
#351=DIRECTION('',(1.E0,0.E0,0.E0));
#352=AXIS2_PLACEMENT_3D('',#349,#350,#351);
#353=CYLINDRICAL_SURFACE('',#352,1.5E0);
#354=ORIENTED_EDGE('',*,*,#238,.T.);
#356=ORIENTED_EDGE('',*,*,#355,.F.);
#357=ORIENTED_EDGE('',*,*,#303,.T.);
#359=ORIENTED_EDGE('',*,*,#358,.T.);
#360=EDGE_LOOP('',(#354,#356,#357,#359));
#361=FACE_OUTER_BOUND('',#360,.F.);
#362=ADVANCED_FACE('',(#361),#353,.F.);
#363=CARTESIAN_POINT('',(0.E0,1.2E1,0.E0));
#364=DIRECTION('',(0.E0,-1.E0,0.E0));
#365=DIRECTION('',(1.E0,0.E0,0.E0));
#366=AXIS2_PLACEMENT_3D('',#363,#364,#365);
#367=CYLINDRICAL_SURFACE('',#366,1.5E0);
#368=ORIENTED_EDGE('',*,*,#240,.T.);
#369=ORIENTED_EDGE('',*,*,#358,.F.);
#370=ORIENTED_EDGE('',*,*,#305,.T.);
#371=ORIENTED_EDGE('',*,*,#355,.T.);
#372=EDGE_LOOP('',(#368,#369,#370,#371));
#373=FACE_OUTER_BOUND('',#372,.F.);
#374=ADVANCED_FACE('',(#373),#367,.F.);
#378=DIMENSIONAL_EXPONENTS(0.E0,0.E0,0.E0,0.E0,0.E0,0.E0,0.E0);
#380=PLANE_ANGLE_MEASURE_WITH_UNIT(PLANE_ANGLE_MEASURE(1.745329251994E-2),#379);
#381=(CONVERSION_BASED_UNIT('DEGREE',#380)NAMED_UNIT(*)PLANE_ANGLE_UNIT());
#383=UNCERTAINTY_MEASURE_WITH_UNIT(LENGTH_MEASURE(1.E-2),#377,'closure',
'Maximum model space distance between geometric entities at asserted connectivities');
#384=(GEOMETRIC_REPRESENTATION_CONTEXT(3)GLOBAL_UNCERTAINTY_ASSIGNED_CONTEXT((
#383))GLOBAL_UNIT_ASSIGNED_CONTEXT((#377,#381,#382))REPRESENTATION_CONTEXT
('ID1','3'));
#386=APPLICATION_CONTEXT(
'CONFIGURATION CONTROLLED 3D DESIGNS OF MECHANICAL PARTS AND ASSEMBLIES');
#387=APPLICATION_PROTOCOL_DEFINITION('international standard',
'config_control_design',1994,#386);
#388=DESIGN_CONTEXT('',#386,'design');
#389=MECHANICAL_CONTEXT('',#386,'mechanical');
#390=PRODUCT('10_BUSH','10_BUSH','NOT SPECIFIED',(#389));
#391=PRODUCT_DEFINITION_FORMATION_WITH_SPECIFIED_SOURCE('1','LAST_VERSION',#390,
.MADE.);
#395=PRODUCT_CATEGORY('part','');
#396=PRODUCT_RELATED_PRODUCT_CATEGORY('detail','',(#390));
#397=PRODUCT_CATEGORY_RELATIONSHIP('','',#395,#396);
#398=SECURITY_CLASSIFICATION_LEVEL('unclassified');
#399=SECURITY_CLASSIFICATION('','',#398);
#400=CC_DESIGN_SECURITY_CLASSIFICATION(#399,(#391));
#401=APPROVAL_STATUS('approved');
#402=APPROVAL(#401,'');
#403=CC_DESIGN_APPROVAL(#402,(#399,#391,#392));
#404=CALENDAR_DATE(126,8,9);
#405=COORDINATED_UNIVERSAL_TIME_OFFSET(5,30,.AHEAD.);
#406=LOCAL_TIME(23,10,2.E1,#405);
#407=DATE_AND_TIME(#404,#406);
#408=APPROVAL_DATE_TIME(#407,#402);
#409=DATE_TIME_ROLE('creation_date');
#410=CC_DESIGN_DATE_AND_TIME_ASSIGNMENT(#407,#409,(#392));
#411=DATE_TIME_ROLE('classification_date');
#412=CC_DESIGN_DATE_AND_TIME_ASSIGNMENT(#407,#411,(#399));
#413=PERSON('UNSPECIFIED','UNSPECIFIED',$,$,$,$);
#414=ORGANIZATION('UNSPECIFIED','UNSPECIFIED','UNSPECIFIED');
#415=PERSON_AND_ORGANIZATION(#413,#414);
#416=APPROVAL_ROLE('approver');
#417=APPROVAL_PERSON_ORGANIZATION(#415,#402,#416);
#418=PERSON_AND_ORGANIZATION_ROLE('creator');
#419=CC_DESIGN_PERSON_AND_ORGANIZATION_ASSIGNMENT(#415,#418,(#391,#392));
#420=PERSON_AND_ORGANIZATION_ROLE('design_supplier');
#421=CC_DESIGN_PERSON_AND_ORGANIZATION_ASSIGNMENT(#415,#420,(#391));
#422=PERSON_AND_ORGANIZATION_ROLE('classification_officer');
#423=CC_DESIGN_PERSON_AND_ORGANIZATION_ASSIGNMENT(#415,#422,(#399));
#424=PERSON_AND_ORGANIZATION_ROLE('design_owner');
#425=CC_DESIGN_PERSON_AND_ORGANIZATION_ASSIGNMENT(#415,#424,(#390));
#5=CIRCLE('',#4,9.E0);
#10=CIRCLE('',#9,9.E0);
#15=CIRCLE('',#14,1.15E1);
#20=CIRCLE('',#19,1.15E1);
#44=B_SPLINE_CURVE_WITH_KNOTS('',3,(#29,#30,#31,#32,#33,#34,#35,#36,#37,#38,#39,
#40,#41,#42,#43),.UNSPECIFIED.,.F.,.F.,(4,1,1,1,1,1,1,1,1,1,1,1,4),(0.E0,
8.333333333333E-2,1.666666666667E-1,2.5E-1,3.333333333333E-1,4.166666666667E-1,
5.E-1,5.833333333333E-1,6.666666666667E-1,7.5E-1,8.333333333333E-1,
9.166666666667E-1,1.E0),.UNSPECIFIED.);
#60=B_SPLINE_CURVE_WITH_KNOTS('',3,(#45,#46,#47,#48,#49,#50,#51,#52,#53,#54,#55,
#56,#57,#58,#59),.UNSPECIFIED.,.F.,.F.,(4,1,1,1,1,1,1,1,1,1,1,1,4),(0.E0,
8.333333333333E-2,1.666666666667E-1,2.5E-1,3.333333333333E-1,4.166666666667E-1,
5.E-1,5.833333333333E-1,6.666666666667E-1,7.5E-1,8.333333333333E-1,
9.166666666667E-1,1.E0),.UNSPECIFIED.);
#65=CIRCLE('',#64,9.E0);
#70=CIRCLE('',#69,9.E0);
#75=CIRCLE('',#74,1.15E1);
#80=CIRCLE('',#79,1.15E1);
#93=CIRCLE('',#92,1.2E1);
#98=CIRCLE('',#97,1.2E1);
#118=B_SPLINE_CURVE_WITH_KNOTS('',3,(#103,#104,#105,#106,#107,#108,#109,#110,
#111,#112,#113,#114,#115,#116,#117),.UNSPECIFIED.,.F.,.F.,(4,1,1,1,1,1,1,1,1,1,
1,1,4),(0.E0,8.333333333333E-2,1.666666666667E-1,2.5E-1,3.333333333333E-1,
4.166666666667E-1,5.E-1,5.833333333333E-1,6.666666666667E-1,7.5E-1,
8.333333333333E-1,9.166666666667E-1,1.E0),.UNSPECIFIED.);
#134=B_SPLINE_CURVE_WITH_KNOTS('',3,(#119,#120,#121,#122,#123,#124,#125,#126,
#127,#128,#129,#130,#131,#132,#133),.UNSPECIFIED.,.F.,.F.,(4,1,1,1,1,1,1,1,1,1,
1,1,4),(0.E0,8.333333333333E-2,1.666666666667E-1,2.5E-1,3.333333333333E-1,
4.166666666667E-1,5.E-1,5.833333333333E-1,6.666666666667E-1,7.5E-1,
8.333333333333E-1,9.166666666667E-1,1.E0),.UNSPECIFIED.);
#139=CIRCLE('',#138,1.2E1);
#144=CIRCLE('',#143,1.2E1);
#198=EDGE_CURVE('',#183,#184,#15,.T.);
#200=EDGE_CURVE('',#184,#183,#20,.T.);
#204=EDGE_CURVE('',#167,#168,#5,.T.);
#206=EDGE_CURVE('',#168,#167,#10,.T.);
#217=EDGE_CURVE('',#167,#171,#24,.T.);
#219=EDGE_CURVE('',#171,#172,#65,.T.);
#221=EDGE_CURVE('',#168,#172,#28,.T.);
#233=EDGE_CURVE('',#172,#171,#70,.T.);
#238=EDGE_CURVE('',#189,#190,#44,.T.);
#240=EDGE_CURVE('',#190,#189,#60,.T.);
#250=EDGE_CURVE('',#175,#176,#75,.T.);
#252=EDGE_CURVE('',#176,#175,#80,.T.);
#267=EDGE_CURVE('',#176,#180,#88,.T.);
#269=EDGE_CURVE('',#179,#180,#139,.T.);
#271=EDGE_CURVE('',#175,#179,#84,.T.);
#283=EDGE_CURVE('',#180,#179,#93,.T.);
#295=EDGE_CURVE('',#188,#179,#148,.T.);
#297=EDGE_CURVE('',#188,#187,#98,.T.);
#299=EDGE_CURVE('',#187,#180,#102,.T.);
#303=EDGE_CURVE('',#191,#192,#118,.T.);
#305=EDGE_CURVE('',#192,#191,#134,.T.);
#317=EDGE_CURVE('',#187,#188,#144,.T.);
#329=EDGE_CURVE('',#184,#188,#156,.T.);
#332=EDGE_CURVE('',#183,#187,#152,.T.);
#355=EDGE_CURVE('',#191,#190,#160,.T.);
#358=EDGE_CURVE('',#192,#189,#164,.T.);
#375=CLOSED_SHELL('',(#210,#225,#244,#260,#275,#288,#309,#322,#336,#348,#362,
#374));
#376=MANIFOLD_SOLID_BREP('',#375);
#377=(LENGTH_UNIT()NAMED_UNIT(*)SI_UNIT(.MILLI.,.METRE.));
#379=(NAMED_UNIT(*)PLANE_ANGLE_UNIT()SI_UNIT($,.RADIAN.));
#382=(NAMED_UNIT(*)SI_UNIT($,.STERADIAN.)SOLID_ANGLE_UNIT());
#385=ADVANCED_BREP_SHAPE_REPRESENTATION('',(#376),#384);
#392=PRODUCT_DEFINITION('design','',#391,#388);
#393=PRODUCT_DEFINITION_SHAPE('','SHAPE FOR 10_BUSH.',#392);
#394=SHAPE_DEFINITION_REPRESENTATION(#393,#385);
ENDSEC;
END-ISO-10303-21;
