ISO-10303-21;
HEADER;
FILE_DESCRIPTION((''),'2;1');
FILE_NAME('11_SETSCREW3','2026-09-08T23:10:58',('acer'),(''),
'CREO PARAMETRIC BY PTC INC, 2025102','CREO PARAMETRIC BY PTC INC, 2025102','');
FILE_SCHEMA(('CONFIG_CONTROL_DESIGN'));
ENDSEC;
DATA;
#1=DIRECTION('',(-7.071067704114E-1,-7.071067919599E-1,1.626652922095E-6));
#2=VECTOR('',#1,8.856639794195E0);
#3=CARTESIAN_POINT('',(2.565625339759E0,3.696996293374E0,-7.827040763371E-6));
#4=LINE('',#3,#2);
#5=DIRECTION('',(7.071067704114E-1,7.071067919599E-1,1.626652921861E-6));
#6=VECTOR('',#5,8.856639794195E0);
#7=CARTESIAN_POINT('',(-2.565625339759E0,-3.696996293374E0,-7.827040761003E-6));
#8=LINE('',#7,#6);
#9=CARTESIAN_POINT('',(0.E0,0.E0,0.E0));
#10=DIRECTION('',(0.E0,0.E0,1.E0));
#11=DIRECTION('',(5.701367528381E-1,8.215498055889E-1,0.E0));
#12=AXIS2_PLACEMENT_3D('',#9,#10,#11);
#14=CARTESIAN_POINT('',(0.E0,0.E0,-5.E-1));
#15=DIRECTION('',(0.E0,0.E0,1.E0));
#16=DIRECTION('',(0.E0,1.E0,0.E0));
#17=AXIS2_PLACEMENT_3D('',#14,#15,#16);
#19=DIRECTION('',(0.E0,0.E0,-1.E0));
#20=VECTOR('',#19,2.5E0);
#21=CARTESIAN_POINT('',(-4.055671098272E0,-2.924300248374E0,-5.E-1));
#22=LINE('',#21,#20);
#23=CARTESIAN_POINT('',(0.E0,0.E0,-3.E0));
#24=DIRECTION('',(0.E0,0.E0,1.E0));
#25=DIRECTION('',(-8.111342196545E-1,-5.848600496748E-1,0.E0));
#26=AXIS2_PLACEMENT_3D('',#23,#24,#25);
#28=DIRECTION('',(0.E0,0.E0,-1.E0));
#29=VECTOR('',#28,2.5E0);
#30=CARTESIAN_POINT('',(-2.924300248374E0,-4.055671098272E0,-5.E-1));
#31=LINE('',#30,#29);
#32=CARTESIAN_POINT('',(0.E0,0.E0,-5.E-1));
#33=DIRECTION('',(0.E0,0.E0,1.E0));
#34=DIRECTION('',(-5.848600496748E-1,-8.111342196545E-1,0.E0));
#35=AXIS2_PLACEMENT_3D('',#32,#33,#34);
#37=DIRECTION('',(-7.713457281658E-9,2.828445588306E-6,9.999999999960E-1));
#38=VECTOR('',#37,2.383981339187E1);
#39=CARTESIAN_POINT('',(0.E0,-5.E0,-2.433974596216E1));
#40=LINE('',#39,#38);
#41=CARTESIAN_POINT('',(0.E0,0.E0,-2.433974596216E1));
#42=DIRECTION('',(0.E0,0.E0,1.E0));
#43=DIRECTION('',(0.E0,1.E0,0.E0));
#44=AXIS2_PLACEMENT_3D('',#41,#42,#43);
#46=DIRECTION('',(7.713457246315E-9,-2.828445588306E-6,9.999999999960E-1));
#47=VECTOR('',#46,2.383981339187E1);
#48=CARTESIAN_POINT('',(0.E0,5.E0,-2.433974596216E1));
#49=LINE('',#48,#47);
#50=CARTESIAN_POINT('',(-3.696964621811E0,-2.565593859044E0,6.579638237802E-6));
#51=CARTESIAN_POINT('',(-3.755039496723E0,-2.623668733956E0,
-8.081540395852E-2));
#52=CARTESIAN_POINT('',(-3.872915776256E0,-2.741544882792E0,
-2.449838914657E-1));
#53=CARTESIAN_POINT('',(-3.994179775294E0,-2.862808925396E0,
-4.141584655090E-1));
#54=CARTESIAN_POINT('',(-4.055671098272E0,-2.924300248374E0,-5.E-1));
#56=CARTESIAN_POINT('',(2.924300248374E0,4.055671098272E0,-5.E-1));
#57=CARTESIAN_POINT('',(2.862910289261E0,3.994281139160E0,-4.142999688842E-1));
#58=CARTESIAN_POINT('',(2.741732013828E0,3.873102811868E0,-2.452594892265E-1));
#59=CARTESIAN_POINT('',(2.623801724536E0,3.755172678151E0,-8.097110452480E-2));
#60=CARTESIAN_POINT('',(2.565625339759E0,3.696996293374E0,-7.827040763371E-6));
#62=CARTESIAN_POINT('',(0.E0,0.E0,-5.E-1));
#63=DIRECTION('',(0.E0,0.E0,1.E0));
#64=DIRECTION('',(5.848600496748E-1,8.111342196545E-1,0.E0));
#65=AXIS2_PLACEMENT_3D('',#62,#63,#64);
#67=CARTESIAN_POINT('',(0.E0,0.E0,-2.433974596216E1));
#68=DIRECTION('',(0.E0,0.E0,-1.E0));
#69=DIRECTION('',(0.E0,1.E0,0.E0));
#70=AXIS2_PLACEMENT_3D('',#67,#68,#69);
#72=CARTESIAN_POINT('',(0.E0,0.E0,-5.E-1));
#73=DIRECTION('',(0.E0,0.E0,1.E0));
#74=DIRECTION('',(0.E0,-1.E0,0.E0));
#75=AXIS2_PLACEMENT_3D('',#72,#73,#74);
#77=DIRECTION('',(0.E0,0.E0,-1.E0));
#78=VECTOR('',#77,2.5E0);
#79=CARTESIAN_POINT('',(4.055671098272E0,2.924300248374E0,-5.E-1));
#80=LINE('',#79,#78);
#81=CARTESIAN_POINT('',(0.E0,0.E0,-3.E0));
#82=DIRECTION('',(0.E0,0.E0,1.E0));
#83=DIRECTION('',(8.111342196545E-1,5.848600496748E-1,0.E0));
#84=AXIS2_PLACEMENT_3D('',#81,#82,#83);
#86=DIRECTION('',(0.E0,0.E0,-1.E0));
#87=VECTOR('',#86,2.5E0);
#88=CARTESIAN_POINT('',(2.924300248374E0,4.055671098272E0,-5.E-1));
#89=LINE('',#88,#87);
#90=DIRECTION('',(0.E0,5.E-1,8.660254037844E-1));
#91=VECTOR('',#90,1.E1);
#92=CARTESIAN_POINT('',(0.E0,0.E0,-3.3E1));
#93=LINE('',#92,#91);
#94=DIRECTION('',(0.E0,-5.E-1,8.660254037844E-1));
#95=VECTOR('',#94,1.E1);
#96=CARTESIAN_POINT('',(0.E0,0.E0,-3.3E1));
#97=LINE('',#96,#95);
#98=CARTESIAN_POINT('',(0.E0,-1.043609643148E-14,0.E0));
#99=DIRECTION('',(0.E0,0.E0,1.E0));
#100=DIRECTION('',(-5.701367528381E-1,-8.215498055889E-1,0.E0));
#101=AXIS2_PLACEMENT_3D('',#98,#99,#100);
#103=CARTESIAN_POINT('',(3.696964621811E0,2.565593859044E0,6.579638238099E-6));
#104=CARTESIAN_POINT('',(3.755039496723E0,2.623668733956E0,-8.081540395852E-2));
#105=CARTESIAN_POINT('',(3.872915776256E0,2.741544882792E0,-2.449838914657E-1));
#106=CARTESIAN_POINT('',(3.994179775294E0,2.862808925396E0,-4.141584655090E-1));
#107=CARTESIAN_POINT('',(4.055671098272E0,2.924300248374E0,-5.E-1));
#109=CARTESIAN_POINT('',(-2.924300248374E0,-4.055671098272E0,-5.E-1));
#110=CARTESIAN_POINT('',(-2.862910289261E0,-3.994281139160E0,
-4.142999688842E-1));
#111=CARTESIAN_POINT('',(-2.741732013828E0,-3.873102811868E0,
-2.452594892265E-1));
#112=CARTESIAN_POINT('',(-2.623801724536E0,-3.755172678151E0,
-8.097110452480E-2));
#113=CARTESIAN_POINT('',(-2.565625339759E0,-3.696996293374E0,
-7.827040761003E-6));
#115=DIRECTION('',(7.071067811865E-1,7.071067811865E-1,0.E0));
#116=VECTOR('',#115,9.871170143402E0);
#117=CARTESIAN_POINT('',(-2.924300248374E0,-4.055671098272E0,-3.E0));
#118=LINE('',#117,#116);
#119=DIRECTION('',(-7.071067811865E-1,-7.071067811865E-1,0.E0));
#120=VECTOR('',#119,9.871170143402E0);
#121=CARTESIAN_POINT('',(2.924300248374E0,4.055671098272E0,-3.E0));
#122=LINE('',#121,#120);
#123=CARTESIAN_POINT('',(0.E0,0.E0,-3.3E1));
#124=CARTESIAN_POINT('',(0.E0,5.E0,-2.433974596216E1));
#125=VERTEX_POINT('',#123);
#126=VERTEX_POINT('',#124);
#127=CARTESIAN_POINT('',(0.E0,-5.E0,-2.433974596216E1));
#128=VERTEX_POINT('',#127);
#129=CARTESIAN_POINT('',(4.055671098272E0,2.924300248374E0,-3.E0));
#130=CARTESIAN_POINT('',(2.924300248374E0,4.055671098272E0,-3.E0));
#131=VERTEX_POINT('',#129);
#132=VERTEX_POINT('',#130);
#133=CARTESIAN_POINT('',(-4.055671098272E0,-2.924300248374E0,-3.E0));
#134=CARTESIAN_POINT('',(-2.924300248374E0,-4.055671098272E0,-3.E0));
#135=VERTEX_POINT('',#133);
#136=VERTEX_POINT('',#134);
#137=VERTEX_POINT('',#50);
#138=VERTEX_POINT('',#54);
#139=CARTESIAN_POINT('',(0.E0,5.E0,-5.E-1));
#140=VERTEX_POINT('',#139);
#141=VERTEX_POINT('',#56);
#142=VERTEX_POINT('',#60);
#143=VERTEX_POINT('',#103);
#144=VERTEX_POINT('',#107);
#145=CARTESIAN_POINT('',(0.E0,-5.E0,-5.E-1));
#146=VERTEX_POINT('',#145);
#147=VERTEX_POINT('',#109);
#148=VERTEX_POINT('',#113);
#149=CARTESIAN_POINT('',(0.E0,0.E0,0.E0));
#150=DIRECTION('',(0.E0,0.E0,-1.E0));
#151=DIRECTION('',(0.E0,-1.E0,0.E0));
#152=AXIS2_PLACEMENT_3D('',#149,#150,#151);
#153=PLANE('',#152);
#155=ORIENTED_EDGE('',*,*,#154,.F.);
#157=ORIENTED_EDGE('',*,*,#156,.T.);
#158=EDGE_LOOP('',(#155,#157));
#159=FACE_OUTER_BOUND('',#158,.F.);
#160=ADVANCED_FACE('',(#159),#153,.F.);
#161=CARTESIAN_POINT('',(0.E0,0.E0,0.E0));
#162=DIRECTION('',(0.E0,0.E0,-1.E0));
#163=DIRECTION('',(0.E0,-1.E0,0.E0));
#164=AXIS2_PLACEMENT_3D('',#161,#162,#163);
#165=PLANE('',#164);
#167=ORIENTED_EDGE('',*,*,#166,.F.);
#169=ORIENTED_EDGE('',*,*,#168,.T.);
#170=EDGE_LOOP('',(#167,#169));
#171=FACE_OUTER_BOUND('',#170,.F.);
#172=ADVANCED_FACE('',(#171),#165,.F.);
#173=CARTESIAN_POINT('',(0.E0,0.E0,-2.499998703759E-1));
#174=DIRECTION('',(0.E0,0.E0,-1.E0));
#175=DIRECTION('',(0.E0,-1.E0,0.E0));
#176=AXIS2_PLACEMENT_3D('',#173,#174,#175);
#177=CONICAL_SURFACE('',#176,4.749999870376E0,4.5E1);
#179=ORIENTED_EDGE('',*,*,#178,.F.);
#181=ORIENTED_EDGE('',*,*,#180,.F.);
#183=ORIENTED_EDGE('',*,*,#182,.T.);
#184=ORIENTED_EDGE('',*,*,#154,.T.);
#186=ORIENTED_EDGE('',*,*,#185,.T.);
#187=EDGE_LOOP('',(#179,#181,#183,#184,#186));
#188=FACE_OUTER_BOUND('',#187,.F.);
#189=ADVANCED_FACE('',(#188),#177,.T.);
#190=CARTESIAN_POINT('',(0.E0,0.E0,1.65E0));
#191=DIRECTION('',(0.E0,0.E0,-1.E0));
#192=DIRECTION('',(0.E0,-1.E0,0.E0));
#193=AXIS2_PLACEMENT_3D('',#190,#191,#192);
#194=CYLINDRICAL_SURFACE('',#193,5.E0);
#195=ORIENTED_EDGE('',*,*,#178,.T.);
#197=ORIENTED_EDGE('',*,*,#196,.T.);
#199=ORIENTED_EDGE('',*,*,#198,.T.);
#201=ORIENTED_EDGE('',*,*,#200,.F.);
#203=ORIENTED_EDGE('',*,*,#202,.T.);
#205=ORIENTED_EDGE('',*,*,#204,.F.);
#207=ORIENTED_EDGE('',*,*,#206,.F.);
#209=ORIENTED_EDGE('',*,*,#208,.T.);
#210=EDGE_LOOP('',(#195,#197,#199,#201,#203,#205,#207,#209));
#211=FACE_OUTER_BOUND('',#210,.F.);
#212=ADVANCED_FACE('',(#211),#194,.T.);
#213=CARTESIAN_POINT('',(2.969848480983E0,4.101219330882E0,0.E0));
#214=DIRECTION('',(-7.071067811865E-1,7.071067811865E-1,0.E0));
#215=DIRECTION('',(-7.071067811865E-1,-7.071067811865E-1,0.E0));
#216=AXIS2_PLACEMENT_3D('',#213,#214,#215);
#217=PLANE('',#216);
#218=ORIENTED_EDGE('',*,*,#185,.F.);
#219=ORIENTED_EDGE('',*,*,#156,.F.);
#220=ORIENTED_EDGE('',*,*,#182,.F.);
#222=ORIENTED_EDGE('',*,*,#221,.T.);
#224=ORIENTED_EDGE('',*,*,#223,.T.);
#225=ORIENTED_EDGE('',*,*,#196,.F.);
#226=EDGE_LOOP('',(#218,#219,#220,#222,#224,#225));
#227=FACE_OUTER_BOUND('',#226,.F.);
#228=ADVANCED_FACE('',(#227),#217,.F.);
#229=CARTESIAN_POINT('',(0.E0,0.E0,1.65E0));
#230=DIRECTION('',(0.E0,0.E0,-1.E0));
#231=DIRECTION('',(0.E0,-1.E0,0.E0));
#232=AXIS2_PLACEMENT_3D('',#229,#230,#231);
#233=CYLINDRICAL_SURFACE('',#232,5.E0);
#234=ORIENTED_EDGE('',*,*,#180,.T.);
#235=ORIENTED_EDGE('',*,*,#208,.F.);
#237=ORIENTED_EDGE('',*,*,#236,.T.);
#238=ORIENTED_EDGE('',*,*,#204,.T.);
#240=ORIENTED_EDGE('',*,*,#239,.T.);
#242=ORIENTED_EDGE('',*,*,#241,.T.);
#244=ORIENTED_EDGE('',*,*,#243,.T.);
#245=ORIENTED_EDGE('',*,*,#221,.F.);
#246=EDGE_LOOP('',(#234,#235,#237,#238,#240,#242,#244,#245));
#247=FACE_OUTER_BOUND('',#246,.F.);
#248=ADVANCED_FACE('',(#247),#233,.T.);
#249=CARTESIAN_POINT('',(0.E0,0.E0,-2.858327044070E1));
#250=DIRECTION('',(0.E0,0.E0,1.E0));
#251=DIRECTION('',(0.E0,1.E0,0.E0));
#252=AXIS2_PLACEMENT_3D('',#249,#250,#251);
#253=CONICAL_SURFACE('',#252,2.55E0,3.E1);
#255=ORIENTED_EDGE('',*,*,#254,.F.);
#257=ORIENTED_EDGE('',*,*,#256,.T.);
#258=ORIENTED_EDGE('',*,*,#236,.F.);
#259=EDGE_LOOP('',(#255,#257,#258));
#260=FACE_OUTER_BOUND('',#259,.F.);
#261=ADVANCED_FACE('',(#260),#253,.T.);
#262=CARTESIAN_POINT('',(0.E0,0.E0,-2.858327044070E1));
#263=DIRECTION('',(0.E0,0.E0,1.E0));
#264=DIRECTION('',(0.E0,1.E0,0.E0));
#265=AXIS2_PLACEMENT_3D('',#262,#263,#264);
#266=CONICAL_SURFACE('',#265,2.55E0,3.E1);
#267=ORIENTED_EDGE('',*,*,#254,.T.);
#268=ORIENTED_EDGE('',*,*,#206,.T.);
#269=ORIENTED_EDGE('',*,*,#256,.F.);
#270=EDGE_LOOP('',(#267,#268,#269));
#271=FACE_OUTER_BOUND('',#270,.F.);
#272=ADVANCED_FACE('',(#271),#266,.T.);
#273=CARTESIAN_POINT('',(0.E0,-1.043609643148E-14,-2.499998703759E-1));
#274=DIRECTION('',(0.E0,0.E0,-1.E0));
#275=DIRECTION('',(0.E0,-1.E0,0.E0));
#276=AXIS2_PLACEMENT_3D('',#273,#274,#275);
#277=CONICAL_SURFACE('',#276,4.749999870376E0,4.5E1);
#278=ORIENTED_EDGE('',*,*,#239,.F.);
#279=ORIENTED_EDGE('',*,*,#202,.F.);
#281=ORIENTED_EDGE('',*,*,#280,.T.);
#282=ORIENTED_EDGE('',*,*,#166,.T.);
#284=ORIENTED_EDGE('',*,*,#283,.T.);
#285=EDGE_LOOP('',(#278,#279,#281,#282,#284));
#286=FACE_OUTER_BOUND('',#285,.F.);
#287=ADVANCED_FACE('',(#286),#277,.T.);
#288=CARTESIAN_POINT('',(-2.969848480984E0,-4.101219330882E0,0.E0));
#289=DIRECTION('',(7.071067811865E-1,-7.071067811865E-1,0.E0));
#290=DIRECTION('',(7.071067811865E-1,7.071067811865E-1,0.E0));
#291=AXIS2_PLACEMENT_3D('',#288,#289,#290);
#292=PLANE('',#291);
#293=ORIENTED_EDGE('',*,*,#283,.F.);
#294=ORIENTED_EDGE('',*,*,#168,.F.);
#295=ORIENTED_EDGE('',*,*,#280,.F.);
#296=ORIENTED_EDGE('',*,*,#200,.T.);
#298=ORIENTED_EDGE('',*,*,#297,.T.);
#299=ORIENTED_EDGE('',*,*,#241,.F.);
#300=EDGE_LOOP('',(#293,#294,#295,#296,#298,#299));
#301=FACE_OUTER_BOUND('',#300,.F.);
#302=ADVANCED_FACE('',(#301),#292,.F.);
#303=CARTESIAN_POINT('',(0.E0,0.E0,-3.E0));
#304=DIRECTION('',(0.E0,0.E0,1.E0));
#305=DIRECTION('',(1.E0,0.E0,0.E0));
#306=AXIS2_PLACEMENT_3D('',#303,#304,#305);
#307=PLANE('',#306);
#308=ORIENTED_EDGE('',*,*,#243,.F.);
#309=ORIENTED_EDGE('',*,*,#297,.F.);
#310=ORIENTED_EDGE('',*,*,#198,.F.);
#311=ORIENTED_EDGE('',*,*,#223,.F.);
#312=EDGE_LOOP('',(#308,#309,#310,#311));
#313=FACE_OUTER_BOUND('',#312,.F.);
#314=ADVANCED_FACE('',(#313),#307,.T.);
#318=DIMENSIONAL_EXPONENTS(0.E0,0.E0,0.E0,0.E0,0.E0,0.E0,0.E0);
#320=PLANE_ANGLE_MEASURE_WITH_UNIT(PLANE_ANGLE_MEASURE(1.745329251994E-2),#319);
#321=(CONVERSION_BASED_UNIT('DEGREE',#320)NAMED_UNIT(*)PLANE_ANGLE_UNIT());
#323=UNCERTAINTY_MEASURE_WITH_UNIT(LENGTH_MEASURE(1.E-2),#317,'closure',
'Maximum model space distance between geometric entities at asserted connectivities');
#324=(GEOMETRIC_REPRESENTATION_CONTEXT(3)GLOBAL_UNCERTAINTY_ASSIGNED_CONTEXT((
#323))GLOBAL_UNIT_ASSIGNED_CONTEXT((#317,#321,#322))REPRESENTATION_CONTEXT
('ID1','3'));
#326=APPLICATION_CONTEXT(
'CONFIGURATION CONTROLLED 3D DESIGNS OF MECHANICAL PARTS AND ASSEMBLIES');
#327=APPLICATION_PROTOCOL_DEFINITION('international standard',
'config_control_design',1994,#326);
#328=DESIGN_CONTEXT('',#326,'design');
#329=MECHANICAL_CONTEXT('',#326,'mechanical');
#330=PRODUCT('11_SETSCREW3','11_SETSCREW3','NOT SPECIFIED',(#329));
#331=PRODUCT_DEFINITION_FORMATION_WITH_SPECIFIED_SOURCE('1','LAST_VERSION',#330,
.MADE.);
#335=PRODUCT_CATEGORY('part','');
#336=PRODUCT_RELATED_PRODUCT_CATEGORY('detail','',(#330));
#337=PRODUCT_CATEGORY_RELATIONSHIP('','',#335,#336);
#338=SECURITY_CLASSIFICATION_LEVEL('unclassified');
#339=SECURITY_CLASSIFICATION('','',#338);
#340=CC_DESIGN_SECURITY_CLASSIFICATION(#339,(#331));
#341=APPROVAL_STATUS('approved');
#342=APPROVAL(#341,'');
#343=CC_DESIGN_APPROVAL(#342,(#339,#331,#332));
#344=CALENDAR_DATE(126,8,9);
#345=COORDINATED_UNIVERSAL_TIME_OFFSET(5,30,.AHEAD.);
#346=LOCAL_TIME(23,10,5.8E1,#345);
#347=DATE_AND_TIME(#344,#346);
#348=APPROVAL_DATE_TIME(#347,#342);
#349=DATE_TIME_ROLE('creation_date');
#350=CC_DESIGN_DATE_AND_TIME_ASSIGNMENT(#347,#349,(#332));
#351=DATE_TIME_ROLE('classification_date');
#352=CC_DESIGN_DATE_AND_TIME_ASSIGNMENT(#347,#351,(#339));
#353=PERSON('UNSPECIFIED','UNSPECIFIED',$,$,$,$);
#354=ORGANIZATION('UNSPECIFIED','UNSPECIFIED','UNSPECIFIED');
#355=PERSON_AND_ORGANIZATION(#353,#354);
#356=APPROVAL_ROLE('approver');
#357=APPROVAL_PERSON_ORGANIZATION(#355,#342,#356);
#358=PERSON_AND_ORGANIZATION_ROLE('creator');
#359=CC_DESIGN_PERSON_AND_ORGANIZATION_ASSIGNMENT(#355,#358,(#331,#332));
#360=PERSON_AND_ORGANIZATION_ROLE('design_supplier');
#361=CC_DESIGN_PERSON_AND_ORGANIZATION_ASSIGNMENT(#355,#360,(#331));
#362=PERSON_AND_ORGANIZATION_ROLE('classification_officer');
#363=CC_DESIGN_PERSON_AND_ORGANIZATION_ASSIGNMENT(#355,#362,(#339));
#364=PERSON_AND_ORGANIZATION_ROLE('design_owner');
#365=CC_DESIGN_PERSON_AND_ORGANIZATION_ASSIGNMENT(#355,#364,(#330));
#13=CIRCLE('',#12,4.5E0);
#18=CIRCLE('',#17,5.E0);
#27=CIRCLE('',#26,5.E0);
#36=CIRCLE('',#35,5.E0);
#45=CIRCLE('',#44,5.E0);
#55=B_SPLINE_CURVE_WITH_KNOTS('',3,(#50,#51,#52,#53,#54),.UNSPECIFIED.,.F.,.F.,(
4,1,4),(0.E0,5.E-1,1.E0),.UNSPECIFIED.);
#61=B_SPLINE_CURVE_WITH_KNOTS('',3,(#56,#57,#58,#59,#60),.UNSPECIFIED.,.F.,.F.,(
4,1,4),(0.E0,5.E-1,1.E0),.UNSPECIFIED.);
#66=CIRCLE('',#65,5.E0);
#71=CIRCLE('',#70,5.E0);
#76=CIRCLE('',#75,5.E0);
#85=CIRCLE('',#84,5.E0);
#102=CIRCLE('',#101,4.5E0);
#108=B_SPLINE_CURVE_WITH_KNOTS('',3,(#103,#104,#105,#106,#107),.UNSPECIFIED.,
.F.,.F.,(4,1,4),(0.E0,5.E-1,1.E0),.UNSPECIFIED.);
#114=B_SPLINE_CURVE_WITH_KNOTS('',3,(#109,#110,#111,#112,#113),.UNSPECIFIED.,
.F.,.F.,(4,1,4),(0.E0,5.E-1,1.E0),.UNSPECIFIED.);
#154=EDGE_CURVE('',#142,#137,#13,.T.);
#156=EDGE_CURVE('',#142,#137,#4,.T.);
#166=EDGE_CURVE('',#148,#143,#102,.T.);
#168=EDGE_CURVE('',#148,#143,#8,.T.);
#178=EDGE_CURVE('',#140,#138,#18,.T.);
#180=EDGE_CURVE('',#141,#140,#66,.T.);
#182=EDGE_CURVE('',#141,#142,#61,.T.);
#185=EDGE_CURVE('',#137,#138,#55,.T.);
#196=EDGE_CURVE('',#138,#135,#22,.T.);
#198=EDGE_CURVE('',#135,#136,#27,.T.);
#200=EDGE_CURVE('',#147,#136,#31,.T.);
#202=EDGE_CURVE('',#147,#146,#36,.T.);
#204=EDGE_CURVE('',#128,#146,#40,.T.);
#206=EDGE_CURVE('',#126,#128,#45,.T.);
#208=EDGE_CURVE('',#126,#140,#49,.T.);
#221=EDGE_CURVE('',#141,#132,#89,.T.);
#223=EDGE_CURVE('',#132,#135,#122,.T.);
#236=EDGE_CURVE('',#126,#128,#71,.T.);
#239=EDGE_CURVE('',#146,#144,#76,.T.);
#241=EDGE_CURVE('',#144,#131,#80,.T.);
#243=EDGE_CURVE('',#131,#132,#85,.T.);
#254=EDGE_CURVE('',#125,#126,#93,.T.);
#256=EDGE_CURVE('',#125,#128,#97,.T.);
#280=EDGE_CURVE('',#147,#148,#114,.T.);
#283=EDGE_CURVE('',#143,#144,#108,.T.);
#297=EDGE_CURVE('',#136,#131,#118,.T.);
#315=CLOSED_SHELL('',(#160,#172,#189,#212,#228,#248,#261,#272,#287,#302,#314));
#316=MANIFOLD_SOLID_BREP('',#315);
#317=(LENGTH_UNIT()NAMED_UNIT(*)SI_UNIT(.MILLI.,.METRE.));
#319=(NAMED_UNIT(*)PLANE_ANGLE_UNIT()SI_UNIT($,.RADIAN.));
#322=(NAMED_UNIT(*)SI_UNIT($,.STERADIAN.)SOLID_ANGLE_UNIT());
#325=ADVANCED_BREP_SHAPE_REPRESENTATION('',(#316),#324);
#332=PRODUCT_DEFINITION('design','',#331,#328);
#333=PRODUCT_DEFINITION_SHAPE('','SHAPE FOR 11_SETSCREW3.',#332);
#334=SHAPE_DEFINITION_REPRESENTATION(#333,#325);
ENDSEC;
END-ISO-10303-21;
