ISO-10303-21;
HEADER;
FILE_DESCRIPTION((''),'2;1');
FILE_NAME('12_LOCKNUT','2026-09-08T23:11:23',('acer'),(''),
'CREO PARAMETRIC BY PTC INC, 2025102','CREO PARAMETRIC BY PTC INC, 2025102','');
FILE_SCHEMA(('CONFIG_CONTROL_DESIGN'));
ENDSEC;
DATA;
#1=DIRECTION('',(1.E0,0.E0,0.E0));
#2=VECTOR('',#1,1.E1);
#3=CARTESIAN_POINT('',(-5.E0,0.E0,8.660254037844E0));
#4=LINE('',#3,#2);
#5=DIRECTION('',(5.E-1,0.E0,-8.660254037844E-1));
#6=VECTOR('',#5,1.E1);
#7=CARTESIAN_POINT('',(5.E0,0.E0,8.660254037844E0));
#8=LINE('',#7,#6);
#9=DIRECTION('',(-5.E-1,0.E0,-8.660254037844E-1));
#10=VECTOR('',#9,1.E1);
#11=CARTESIAN_POINT('',(1.E1,0.E0,0.E0));
#12=LINE('',#11,#10);
#13=DIRECTION('',(-1.E0,0.E0,0.E0));
#14=VECTOR('',#13,1.E1);
#15=CARTESIAN_POINT('',(5.E0,0.E0,-8.660254037844E0));
#16=LINE('',#15,#14);
#17=DIRECTION('',(-5.E-1,0.E0,8.660254037844E-1));
#18=VECTOR('',#17,1.E1);
#19=CARTESIAN_POINT('',(-5.E0,0.E0,-8.660254037844E0));
#20=LINE('',#19,#18);
#21=DIRECTION('',(5.E-1,0.E0,8.660254037844E-1));
#22=VECTOR('',#21,1.E1);
#23=CARTESIAN_POINT('',(-1.E1,0.E0,0.E0));
#24=LINE('',#23,#22);
#25=CARTESIAN_POINT('',(0.E0,0.E0,0.E0));
#26=DIRECTION('',(0.E0,1.E0,0.E0));
#27=DIRECTION('',(1.E0,0.E0,0.E0));
#28=AXIS2_PLACEMENT_3D('',#25,#26,#27);
#30=CARTESIAN_POINT('',(0.E0,0.E0,0.E0));
#31=DIRECTION('',(0.E0,1.E0,0.E0));
#32=DIRECTION('',(-1.E0,0.E0,0.E0));
#33=AXIS2_PLACEMENT_3D('',#30,#31,#32);
#35=CARTESIAN_POINT('',(5.E0,4.226497308104E0,8.660254037844E0));
#36=CARTESIAN_POINT('',(4.415128586193E0,4.395335142205E0,8.660254037844E0));
#37=CARTESIAN_POINT('',(3.266415933947E0,4.681543722338E0,8.660254037844E0));
#38=CARTESIAN_POINT('',(1.636409473284E0,4.939629121025E0,8.660254037844E0));
#39=CARTESIAN_POINT('',(5.427957789672E-1,5.E0,8.660254037844E0));
#40=CARTESIAN_POINT('',(0.E0,5.E0,8.660254037844E0));
#42=DIRECTION('',(0.E0,1.E0,0.E0));
#43=VECTOR('',#42,4.226497308104E0);
#44=CARTESIAN_POINT('',(-5.E0,0.E0,8.660254037844E0));
#45=LINE('',#44,#43);
#46=CARTESIAN_POINT('',(0.E0,5.E0,8.660254037844E0));
#47=CARTESIAN_POINT('',(-5.504739189836E-1,5.E0,8.660254037844E0));
#48=CARTESIAN_POINT('',(-1.654301297506E0,4.937919478180E0,8.660254037844E0));
#49=CARTESIAN_POINT('',(-3.283808958157E0,4.677681453175E0,8.660254037844E0));
#50=CARTESIAN_POINT('',(-4.422459169867E0,4.393218984976E0,8.660254037844E0));
#51=CARTESIAN_POINT('',(-5.E0,4.226497308104E0,8.660254037844E0));
#53=CARTESIAN_POINT('',(0.E0,5.E0,0.E0));
#54=DIRECTION('',(0.E0,-1.E0,0.E0));
#55=DIRECTION('',(0.E0,0.E0,-1.E0));
#56=AXIS2_PLACEMENT_3D('',#53,#54,#55);
#58=CARTESIAN_POINT('',(0.E0,5.E0,0.E0));
#59=DIRECTION('',(0.E0,-1.E0,0.E0));
#60=DIRECTION('',(8.660254037844E-1,0.E0,-5.E-1));
#61=AXIS2_PLACEMENT_3D('',#58,#59,#60);
#63=CARTESIAN_POINT('',(0.E0,5.E0,0.E0));
#64=DIRECTION('',(0.E0,-1.E0,0.E0));
#65=DIRECTION('',(8.660254037844E-1,0.E0,5.E-1));
#66=AXIS2_PLACEMENT_3D('',#63,#64,#65);
#68=CARTESIAN_POINT('',(0.E0,5.E0,0.E0));
#69=DIRECTION('',(0.E0,-1.E0,0.E0));
#70=DIRECTION('',(0.E0,0.E0,1.E0));
#71=AXIS2_PLACEMENT_3D('',#68,#69,#70);
#73=CARTESIAN_POINT('',(0.E0,5.E0,0.E0));
#74=DIRECTION('',(0.E0,-1.E0,0.E0));
#75=DIRECTION('',(-8.660254037844E-1,0.E0,5.E-1));
#76=AXIS2_PLACEMENT_3D('',#73,#74,#75);
#78=CARTESIAN_POINT('',(0.E0,5.E0,0.E0));
#79=DIRECTION('',(0.E0,-1.E0,0.E0));
#80=DIRECTION('',(-8.660254037844E-1,0.E0,-5.E-1));
#81=AXIS2_PLACEMENT_3D('',#78,#79,#80);
#83=CARTESIAN_POINT('',(0.E0,5.E0,0.E0));
#84=DIRECTION('',(0.E0,1.E0,0.E0));
#85=DIRECTION('',(1.E0,0.E0,0.E0));
#86=AXIS2_PLACEMENT_3D('',#83,#84,#85);
#88=CARTESIAN_POINT('',(0.E0,5.E0,0.E0));
#89=DIRECTION('',(0.E0,1.E0,0.E0));
#90=DIRECTION('',(-1.E0,0.E0,0.E0));
#91=AXIS2_PLACEMENT_3D('',#88,#89,#90);
#93=CARTESIAN_POINT('',(-5.E0,4.226497308104E0,8.660254037844E0));
#94=CARTESIAN_POINT('',(-5.293776552629E0,4.396109279846E0,8.151418122619E0));
#95=CARTESIAN_POINT('',(-5.869973349138E0,4.682944618461E0,7.153415995907E0));
#96=CARTESIAN_POINT('',(-6.684897142930E0,4.940208442592E0,5.741926580761E0));
#97=CARTESIAN_POINT('',(-7.229932438218E0,5.E0,4.797897757406E0));
#98=CARTESIAN_POINT('',(-7.5E0,5.E0,4.330127018922E0));
#100=DIRECTION('',(0.E0,1.E0,0.E0));
#101=VECTOR('',#100,4.226497308104E0);
#102=CARTESIAN_POINT('',(-1.E1,0.E0,0.E0));
#103=LINE('',#102,#101);
#104=CARTESIAN_POINT('',(-7.5E0,5.E0,4.330127018922E0));
#105=CARTESIAN_POINT('',(-7.770232973956E0,5.E0,3.862069778150E0));
#106=CARTESIAN_POINT('',(-8.315482545357E0,4.940108072010E0,2.917669817679E0));
#107=CARTESIAN_POINT('',(-9.129842811216E0,4.682998431433E0,1.507156461546E0));
#108=CARTESIAN_POINT('',(-9.706145257813E0,4.396154422608E0,5.089713435123E-1));
#109=CARTESIAN_POINT('',(-1.E1,4.226497308104E0,0.E0));
#111=CARTESIAN_POINT('',(-1.E1,4.226497308104E0,0.E0));
#112=CARTESIAN_POINT('',(-9.706223447371E0,4.396109279846E0,
-5.088359152258E-1));
#113=CARTESIAN_POINT('',(-9.130026650862E0,4.682944618461E0,-1.506838041937E0));
#114=CARTESIAN_POINT('',(-8.315102857070E0,4.940208442592E0,-2.918327457083E0));
#115=CARTESIAN_POINT('',(-7.770067561782E0,5.E0,-3.862356280439E0));
#116=CARTESIAN_POINT('',(-7.5E0,5.E0,-4.330127018922E0));
#118=DIRECTION('',(0.E0,1.E0,0.E0));
#119=VECTOR('',#118,4.226497308104E0);
#120=CARTESIAN_POINT('',(-5.E0,0.E0,-8.660254037844E0));
#121=LINE('',#120,#119);
#122=CARTESIAN_POINT('',(-7.5E0,5.E0,-4.330127018922E0));
#123=CARTESIAN_POINT('',(-7.229767026044E0,5.E0,-4.798184259694E0));
#124=CARTESIAN_POINT('',(-6.684517454643E0,4.940108072010E0,-5.742584220165E0));
#125=CARTESIAN_POINT('',(-5.870157188784E0,4.682998431433E0,-7.153097576299E0));
#126=CARTESIAN_POINT('',(-5.293854742187E0,4.396154422608E0,-8.151282694332E0));
#127=CARTESIAN_POINT('',(-5.E0,4.226497308104E0,-8.660254037844E0));
#129=CARTESIAN_POINT('',(0.E0,5.E0,-8.660254037844E0));
#130=CARTESIAN_POINT('',(5.504739189836E-1,5.E0,-8.660254037844E0));
#131=CARTESIAN_POINT('',(1.654301297506E0,4.937919478180E0,-8.660254037844E0));
#132=CARTESIAN_POINT('',(3.283808958157E0,4.677681453175E0,-8.660254037844E0));
#133=CARTESIAN_POINT('',(4.422459169867E0,4.393218984976E0,-8.660254037844E0));
#134=CARTESIAN_POINT('',(5.E0,4.226497308104E0,-8.660254037844E0));
#136=CARTESIAN_POINT('',(-5.E0,4.226497308104E0,-8.660254037844E0));
#137=CARTESIAN_POINT('',(-4.415128586193E0,4.395335142205E0,-8.660254037844E0));
#138=CARTESIAN_POINT('',(-3.266415933947E0,4.681543722338E0,-8.660254037844E0));
#139=CARTESIAN_POINT('',(-1.636409473284E0,4.939629121025E0,-8.660254037844E0));
#140=CARTESIAN_POINT('',(-5.427957789672E-1,5.E0,-8.660254037844E0));
#141=CARTESIAN_POINT('',(0.E0,5.E0,-8.660254037844E0));
#143=DIRECTION('',(0.E0,1.E0,0.E0));
#144=VECTOR('',#143,4.226497308104E0);
#145=CARTESIAN_POINT('',(5.E0,0.E0,-8.660254037844E0));
#146=LINE('',#145,#144);
#147=CARTESIAN_POINT('',(5.E0,4.226497308104E0,-8.660254037844E0));
#148=CARTESIAN_POINT('',(5.293776552629E0,4.396109279846E0,-8.151418122619E0));
#149=CARTESIAN_POINT('',(5.869973349138E0,4.682944618461E0,-7.153415995907E0));
#150=CARTESIAN_POINT('',(6.684897142930E0,4.940208442592E0,-5.741926580761E0));
#151=CARTESIAN_POINT('',(7.229932438218E0,5.E0,-4.797897757406E0));
#152=CARTESIAN_POINT('',(7.5E0,5.E0,-4.330127018922E0));
#154=DIRECTION('',(0.E0,1.E0,0.E0));
#155=VECTOR('',#154,4.226497308104E0);
#156=CARTESIAN_POINT('',(1.E1,0.E0,0.E0));
#157=LINE('',#156,#155);
#158=CARTESIAN_POINT('',(7.5E0,5.E0,-4.330127018922E0));
#159=CARTESIAN_POINT('',(7.770232973956E0,5.E0,-3.862069778150E0));
#160=CARTESIAN_POINT('',(8.315482545357E0,4.940108072010E0,-2.917669817679E0));
#161=CARTESIAN_POINT('',(9.129842811216E0,4.682998431433E0,-1.507156461546E0));
#162=CARTESIAN_POINT('',(9.706145257813E0,4.396154422608E0,-5.089713435123E-1));
#163=CARTESIAN_POINT('',(1.E1,4.226497308104E0,0.E0));
#165=CARTESIAN_POINT('',(1.E1,4.226497308104E0,0.E0));
#166=CARTESIAN_POINT('',(9.706223447371E0,4.396109279846E0,5.088359152258E-1));
#167=CARTESIAN_POINT('',(9.130026650862E0,4.682944618461E0,1.506838041937E0));
#168=CARTESIAN_POINT('',(8.315102857070E0,4.940208442592E0,2.918327457083E0));
#169=CARTESIAN_POINT('',(7.770067561782E0,5.E0,3.862356280439E0));
#170=CARTESIAN_POINT('',(7.5E0,5.E0,4.330127018922E0));
#172=DIRECTION('',(0.E0,1.E0,0.E0));
#173=VECTOR('',#172,4.226497308104E0);
#174=CARTESIAN_POINT('',(5.E0,0.E0,8.660254037844E0));
#175=LINE('',#174,#173);
#176=CARTESIAN_POINT('',(7.5E0,5.E0,4.330127018922E0));
#177=CARTESIAN_POINT('',(7.229767026044E0,5.E0,4.798184259694E0));
#178=CARTESIAN_POINT('',(6.684517454643E0,4.940108072010E0,5.742584220165E0));
#179=CARTESIAN_POINT('',(5.870157188784E0,4.682998431433E0,7.153097576299E0));
#180=CARTESIAN_POINT('',(5.293854742187E0,4.396154422608E0,8.151282694332E0));
#181=CARTESIAN_POINT('',(5.E0,4.226497308104E0,8.660254037844E0));
#183=DIRECTION('',(0.E0,1.E0,0.E0));
#184=VECTOR('',#183,5.E0);
#185=CARTESIAN_POINT('',(4.5E0,0.E0,0.E0));
#186=LINE('',#185,#184);
#187=DIRECTION('',(0.E0,1.E0,0.E0));
#188=VECTOR('',#187,5.E0);
#189=CARTESIAN_POINT('',(-4.5E0,0.E0,0.E0));
#190=LINE('',#189,#188);
#191=CARTESIAN_POINT('',(-5.E0,0.E0,8.660254037844E0));
#192=CARTESIAN_POINT('',(5.E0,0.E0,8.660254037844E0));
#193=VERTEX_POINT('',#191);
#194=VERTEX_POINT('',#192);
#195=CARTESIAN_POINT('',(1.E1,0.E0,0.E0));
#196=VERTEX_POINT('',#195);
#197=CARTESIAN_POINT('',(5.E0,0.E0,-8.660254037844E0));
#198=VERTEX_POINT('',#197);
#199=CARTESIAN_POINT('',(-5.E0,0.E0,-8.660254037844E0));
#200=VERTEX_POINT('',#199);
#201=CARTESIAN_POINT('',(-1.E1,0.E0,0.E0));
#202=VERTEX_POINT('',#201);
#203=CARTESIAN_POINT('',(0.E0,5.E0,-8.660254037844E0));
#204=CARTESIAN_POINT('',(7.5E0,5.E0,-4.330127018922E0));
#205=VERTEX_POINT('',#203);
#206=VERTEX_POINT('',#204);
#207=CARTESIAN_POINT('',(7.5E0,5.E0,4.330127018922E0));
#208=VERTEX_POINT('',#207);
#209=CARTESIAN_POINT('',(0.E0,5.E0,8.660254037844E0));
#210=VERTEX_POINT('',#209);
#211=CARTESIAN_POINT('',(-7.5E0,5.E0,4.330127018922E0));
#212=VERTEX_POINT('',#211);
#213=CARTESIAN_POINT('',(-7.5E0,5.E0,-4.330127018922E0));
#214=VERTEX_POINT('',#213);
#215=VERTEX_POINT('',#35);
#216=VERTEX_POINT('',#51);
#217=VERTEX_POINT('',#165);
#218=VERTEX_POINT('',#147);
#219=VERTEX_POINT('',#136);
#220=VERTEX_POINT('',#111);
#221=CARTESIAN_POINT('',(4.5E0,0.E0,0.E0));
#222=CARTESIAN_POINT('',(-4.5E0,0.E0,0.E0));
#223=VERTEX_POINT('',#221);
#224=VERTEX_POINT('',#222);
#225=CARTESIAN_POINT('',(4.5E0,5.E0,0.E0));
#226=CARTESIAN_POINT('',(-4.5E0,5.E0,0.E0));
#227=VERTEX_POINT('',#225);
#228=VERTEX_POINT('',#226);
#229=CARTESIAN_POINT('',(0.E0,0.E0,0.E0));
#230=DIRECTION('',(0.E0,1.E0,0.E0));
#231=DIRECTION('',(1.E0,0.E0,0.E0));
#232=AXIS2_PLACEMENT_3D('',#229,#230,#231);
#233=PLANE('',#232);
#235=ORIENTED_EDGE('',*,*,#234,.T.);
#237=ORIENTED_EDGE('',*,*,#236,.T.);
#239=ORIENTED_EDGE('',*,*,#238,.T.);
#241=ORIENTED_EDGE('',*,*,#240,.T.);
#243=ORIENTED_EDGE('',*,*,#242,.T.);
#245=ORIENTED_EDGE('',*,*,#244,.T.);
#246=EDGE_LOOP('',(#235,#237,#239,#241,#243,#245));
#247=FACE_OUTER_BOUND('',#246,.F.);
#249=ORIENTED_EDGE('',*,*,#248,.F.);
#251=ORIENTED_EDGE('',*,*,#250,.F.);
#252=EDGE_LOOP('',(#249,#251));
#253=FACE_BOUND('',#252,.F.);
#254=ADVANCED_FACE('',(#247,#253),#233,.F.);
#255=CARTESIAN_POINT('',(-5.E0,0.E0,8.660254037844E0));
#256=DIRECTION('',(0.E0,0.E0,1.E0));
#257=DIRECTION('',(1.E0,0.E0,0.E0));
#258=AXIS2_PLACEMENT_3D('',#255,#256,#257);
#259=PLANE('',#258);
#261=ORIENTED_EDGE('',*,*,#260,.F.);
#263=ORIENTED_EDGE('',*,*,#262,.F.);
#264=ORIENTED_EDGE('',*,*,#234,.F.);
#266=ORIENTED_EDGE('',*,*,#265,.T.);
#268=ORIENTED_EDGE('',*,*,#267,.F.);
#269=EDGE_LOOP('',(#261,#263,#264,#266,#268));
#270=FACE_OUTER_BOUND('',#269,.F.);
#271=ADVANCED_FACE('',(#270),#259,.T.);
#272=CARTESIAN_POINT('',(0.E0,4.613248654052E0,0.E0));
#273=DIRECTION('',(0.E0,-1.E0,0.E0));
#274=DIRECTION('',(0.E0,0.E0,1.E0));
#275=AXIS2_PLACEMENT_3D('',#272,#273,#274);
#276=CONICAL_SURFACE('',#275,9.330127018922E0,6.E1);
#278=ORIENTED_EDGE('',*,*,#277,.F.);
#280=ORIENTED_EDGE('',*,*,#279,.T.);
#282=ORIENTED_EDGE('',*,*,#281,.T.);
#283=EDGE_LOOP('',(#278,#280,#282));
#284=FACE_OUTER_BOUND('',#283,.F.);
#285=ADVANCED_FACE('',(#284),#276,.T.);
#286=CARTESIAN_POINT('',(0.E0,4.613248654052E0,0.E0));
#287=DIRECTION('',(0.E0,-1.E0,0.E0));
#288=DIRECTION('',(0.E0,0.E0,1.E0));
#289=AXIS2_PLACEMENT_3D('',#286,#287,#288);
#290=CONICAL_SURFACE('',#289,9.330127018922E0,6.E1);
#292=ORIENTED_EDGE('',*,*,#291,.F.);
#294=ORIENTED_EDGE('',*,*,#293,.T.);
#296=ORIENTED_EDGE('',*,*,#295,.T.);
#297=EDGE_LOOP('',(#292,#294,#296));
#298=FACE_OUTER_BOUND('',#297,.F.);
#299=ADVANCED_FACE('',(#298),#290,.T.);
#300=CARTESIAN_POINT('',(0.E0,4.613248654052E0,0.E0));
#301=DIRECTION('',(0.E0,-1.E0,0.E0));
#302=DIRECTION('',(0.E0,0.E0,1.E0));
#303=AXIS2_PLACEMENT_3D('',#300,#301,#302);
#304=CONICAL_SURFACE('',#303,9.330127018922E0,6.E1);
#306=ORIENTED_EDGE('',*,*,#305,.F.);
#308=ORIENTED_EDGE('',*,*,#307,.T.);
#309=ORIENTED_EDGE('',*,*,#260,.T.);
#310=EDGE_LOOP('',(#306,#308,#309));
#311=FACE_OUTER_BOUND('',#310,.F.);
#312=ADVANCED_FACE('',(#311),#304,.T.);
#313=CARTESIAN_POINT('',(0.E0,5.E0,0.E0));
#314=DIRECTION('',(0.E0,1.E0,0.E0));
#315=DIRECTION('',(1.E0,0.E0,0.E0));
#316=AXIS2_PLACEMENT_3D('',#313,#314,#315);
#317=PLANE('',#316);
#318=ORIENTED_EDGE('',*,*,#277,.T.);
#319=ORIENTED_EDGE('',*,*,#291,.T.);
#320=ORIENTED_EDGE('',*,*,#305,.T.);
#322=ORIENTED_EDGE('',*,*,#321,.T.);
#324=ORIENTED_EDGE('',*,*,#323,.T.);
#326=ORIENTED_EDGE('',*,*,#325,.T.);
#327=EDGE_LOOP('',(#318,#319,#320,#322,#324,#326));
#328=FACE_OUTER_BOUND('',#327,.F.);
#330=ORIENTED_EDGE('',*,*,#329,.T.);
#332=ORIENTED_EDGE('',*,*,#331,.T.);
#333=EDGE_LOOP('',(#330,#332));
#334=FACE_BOUND('',#333,.F.);
#335=ADVANCED_FACE('',(#328,#334),#317,.T.);
#336=CARTESIAN_POINT('',(0.E0,4.613248654052E0,0.E0));
#337=DIRECTION('',(0.E0,-1.E0,0.E0));
#338=DIRECTION('',(0.E0,0.E0,1.E0));
#339=AXIS2_PLACEMENT_3D('',#336,#337,#338);
#340=CONICAL_SURFACE('',#339,9.330127018922E0,6.E1);
#341=ORIENTED_EDGE('',*,*,#321,.F.);
#342=ORIENTED_EDGE('',*,*,#267,.T.);
#344=ORIENTED_EDGE('',*,*,#343,.T.);
#345=EDGE_LOOP('',(#341,#342,#344));
#346=FACE_OUTER_BOUND('',#345,.F.);
#347=ADVANCED_FACE('',(#346),#340,.T.);
#348=CARTESIAN_POINT('',(0.E0,4.613248654052E0,0.E0));
#349=DIRECTION('',(0.E0,-1.E0,0.E0));
#350=DIRECTION('',(0.E0,0.E0,1.E0));
#351=AXIS2_PLACEMENT_3D('',#348,#349,#350);
#352=CONICAL_SURFACE('',#351,9.330127018922E0,6.E1);
#353=ORIENTED_EDGE('',*,*,#323,.F.);
#355=ORIENTED_EDGE('',*,*,#354,.T.);
#357=ORIENTED_EDGE('',*,*,#356,.T.);
#358=EDGE_LOOP('',(#353,#355,#357));
#359=FACE_OUTER_BOUND('',#358,.F.);
#360=ADVANCED_FACE('',(#359),#352,.T.);
#361=CARTESIAN_POINT('',(0.E0,4.613248654052E0,0.E0));
#362=DIRECTION('',(0.E0,-1.E0,0.E0));
#363=DIRECTION('',(0.E0,0.E0,1.E0));
#364=AXIS2_PLACEMENT_3D('',#361,#362,#363);
#365=CONICAL_SURFACE('',#364,9.330127018922E0,6.E1);
#366=ORIENTED_EDGE('',*,*,#325,.F.);
#368=ORIENTED_EDGE('',*,*,#367,.T.);
#370=ORIENTED_EDGE('',*,*,#369,.T.);
#371=EDGE_LOOP('',(#366,#368,#370));
#372=FACE_OUTER_BOUND('',#371,.F.);
#373=ADVANCED_FACE('',(#372),#365,.T.);
#374=CARTESIAN_POINT('',(-1.E1,0.E0,0.E0));
#375=DIRECTION('',(-8.660254037844E-1,0.E0,5.E-1));
#376=DIRECTION('',(5.E-1,0.E0,8.660254037844E-1));
#377=AXIS2_PLACEMENT_3D('',#374,#375,#376);
#378=PLANE('',#377);
#379=ORIENTED_EDGE('',*,*,#343,.F.);
#380=ORIENTED_EDGE('',*,*,#265,.F.);
#381=ORIENTED_EDGE('',*,*,#244,.F.);
#383=ORIENTED_EDGE('',*,*,#382,.T.);
#384=ORIENTED_EDGE('',*,*,#354,.F.);
#385=EDGE_LOOP('',(#379,#380,#381,#383,#384));
#386=FACE_OUTER_BOUND('',#385,.F.);
#387=ADVANCED_FACE('',(#386),#378,.T.);
#388=CARTESIAN_POINT('',(-5.E0,0.E0,-8.660254037844E0));
#389=DIRECTION('',(-8.660254037844E-1,0.E0,-5.E-1));
#390=DIRECTION('',(-5.E-1,0.E0,8.660254037844E-1));
#391=AXIS2_PLACEMENT_3D('',#388,#389,#390);
#392=PLANE('',#391);
#393=ORIENTED_EDGE('',*,*,#356,.F.);
#394=ORIENTED_EDGE('',*,*,#382,.F.);
#395=ORIENTED_EDGE('',*,*,#242,.F.);
#397=ORIENTED_EDGE('',*,*,#396,.T.);
#398=ORIENTED_EDGE('',*,*,#367,.F.);
#399=EDGE_LOOP('',(#393,#394,#395,#397,#398));
#400=FACE_OUTER_BOUND('',#399,.F.);
#401=ADVANCED_FACE('',(#400),#392,.T.);
#402=CARTESIAN_POINT('',(5.E0,0.E0,-8.660254037844E0));
#403=DIRECTION('',(0.E0,0.E0,-1.E0));
#404=DIRECTION('',(-1.E0,0.E0,0.E0));
#405=AXIS2_PLACEMENT_3D('',#402,#403,#404);
#406=PLANE('',#405);
#407=ORIENTED_EDGE('',*,*,#279,.F.);
#408=ORIENTED_EDGE('',*,*,#369,.F.);
#409=ORIENTED_EDGE('',*,*,#396,.F.);
#410=ORIENTED_EDGE('',*,*,#240,.F.);
#412=ORIENTED_EDGE('',*,*,#411,.T.);
#413=EDGE_LOOP('',(#407,#408,#409,#410,#412));
#414=FACE_OUTER_BOUND('',#413,.F.);
#415=ADVANCED_FACE('',(#414),#406,.T.);
#416=CARTESIAN_POINT('',(1.E1,0.E0,0.E0));
#417=DIRECTION('',(8.660254037844E-1,0.E0,-5.E-1));
#418=DIRECTION('',(-5.E-1,0.E0,-8.660254037844E-1));
#419=AXIS2_PLACEMENT_3D('',#416,#417,#418);
#420=PLANE('',#419);
#421=ORIENTED_EDGE('',*,*,#281,.F.);
#422=ORIENTED_EDGE('',*,*,#411,.F.);
#423=ORIENTED_EDGE('',*,*,#238,.F.);
#425=ORIENTED_EDGE('',*,*,#424,.T.);
#426=ORIENTED_EDGE('',*,*,#293,.F.);
#427=EDGE_LOOP('',(#421,#422,#423,#425,#426));
#428=FACE_OUTER_BOUND('',#427,.F.);
#429=ADVANCED_FACE('',(#428),#420,.T.);
#430=CARTESIAN_POINT('',(5.E0,0.E0,8.660254037844E0));
#431=DIRECTION('',(8.660254037844E-1,0.E0,5.E-1));
#432=DIRECTION('',(5.E-1,0.E0,-8.660254037844E-1));
#433=AXIS2_PLACEMENT_3D('',#430,#431,#432);
#434=PLANE('',#433);
#435=ORIENTED_EDGE('',*,*,#295,.F.);
#436=ORIENTED_EDGE('',*,*,#424,.F.);
#437=ORIENTED_EDGE('',*,*,#236,.F.);
#438=ORIENTED_EDGE('',*,*,#262,.T.);
#439=ORIENTED_EDGE('',*,*,#307,.F.);
#440=EDGE_LOOP('',(#435,#436,#437,#438,#439));
#441=FACE_OUTER_BOUND('',#440,.F.);
#442=ADVANCED_FACE('',(#441),#434,.T.);
#443=CARTESIAN_POINT('',(0.E0,-7.75E-1,0.E0));
#444=DIRECTION('',(0.E0,1.E0,0.E0));
#445=DIRECTION('',(1.E0,0.E0,0.E0));
#446=AXIS2_PLACEMENT_3D('',#443,#444,#445);
#447=CYLINDRICAL_SURFACE('',#446,4.5E0);
#448=ORIENTED_EDGE('',*,*,#248,.T.);
#450=ORIENTED_EDGE('',*,*,#449,.T.);
#451=ORIENTED_EDGE('',*,*,#329,.F.);
#453=ORIENTED_EDGE('',*,*,#452,.F.);
#454=EDGE_LOOP('',(#448,#450,#451,#453));
#455=FACE_OUTER_BOUND('',#454,.F.);
#456=ADVANCED_FACE('',(#455),#447,.F.);
#457=CARTESIAN_POINT('',(0.E0,-7.75E-1,0.E0));
#458=DIRECTION('',(0.E0,1.E0,0.E0));
#459=DIRECTION('',(1.E0,0.E0,0.E0));
#460=AXIS2_PLACEMENT_3D('',#457,#458,#459);
#461=CYLINDRICAL_SURFACE('',#460,4.5E0);
#462=ORIENTED_EDGE('',*,*,#250,.T.);
#463=ORIENTED_EDGE('',*,*,#452,.T.);
#464=ORIENTED_EDGE('',*,*,#331,.F.);
#465=ORIENTED_EDGE('',*,*,#449,.F.);
#466=EDGE_LOOP('',(#462,#463,#464,#465));
#467=FACE_OUTER_BOUND('',#466,.F.);
#468=ADVANCED_FACE('',(#467),#461,.F.);
#471=CARTESIAN_POINT('',(0.E0,0.E0,0.E0));
#472=DIRECTION('',(0.E0,1.E0,0.E0));
#473=DIRECTION('',(1.E0,0.E0,0.E0));
#474=AXIS2_PLACEMENT_3D('',#471,#472,#473);
#476=CARTESIAN_POINT('',(0.E0,5.E0,0.E0));
#477=DIRECTION('',(0.E0,-1.E0,0.E0));
#478=DIRECTION('',(-1.E0,0.E0,0.E0));
#479=AXIS2_PLACEMENT_3D('',#476,#477,#478);
#481=CARTESIAN_POINT('',(0.E0,0.E0,0.E0));
#482=DIRECTION('',(0.E0,1.E0,0.E0));
#483=DIRECTION('',(-1.E0,0.E0,0.E0));
#484=AXIS2_PLACEMENT_3D('',#481,#482,#483);
#486=DIRECTION('',(0.E0,-1.E0,0.E0));
#487=VECTOR('',#486,5.E0);
#488=CARTESIAN_POINT('',(5.E0,5.E0,0.E0));
#489=LINE('',#488,#487);
#490=CARTESIAN_POINT('',(0.E0,5.E0,0.E0));
#491=DIRECTION('',(0.E0,-1.E0,0.E0));
#492=DIRECTION('',(1.E0,0.E0,0.E0));
#493=AXIS2_PLACEMENT_3D('',#490,#491,#492);
#495=DIRECTION('',(0.E0,-1.E0,0.E0));
#496=VECTOR('',#495,5.E0);
#497=CARTESIAN_POINT('',(-5.E0,5.E0,0.E0));
#498=LINE('',#497,#496);
#499=CARTESIAN_POINT('',(5.E0,0.E0,0.E0));
#500=CARTESIAN_POINT('',(-5.E0,0.E0,0.E0));
#501=VERTEX_POINT('',#499);
#502=VERTEX_POINT('',#500);
#503=CARTESIAN_POINT('',(5.E0,5.E0,0.E0));
#504=CARTESIAN_POINT('',(-5.E0,5.E0,0.E0));
#505=VERTEX_POINT('',#503);
#506=VERTEX_POINT('',#504);
#507=CARTESIAN_POINT('',(0.E0,-7.75E-1,0.E0));
#508=DIRECTION('',(0.E0,1.E0,0.E0));
#509=DIRECTION('',(1.E0,0.E0,0.E0));
#510=AXIS2_PLACEMENT_3D('',#507,#508,#509);
#511=CYLINDRICAL_SURFACE('',#510,5.E0);
#513=ORIENTED_EDGE('',*,*,#512,.T.);
#515=ORIENTED_EDGE('',*,*,#514,.F.);
#517=ORIENTED_EDGE('',*,*,#516,.T.);
#519=ORIENTED_EDGE('',*,*,#518,.T.);
#520=EDGE_LOOP('',(#513,#515,#517,#519));
#521=FACE_OUTER_BOUND('',#520,.F.);
#522=ADVANCED_FACE('',(#521),#511,.F.);
#523=CARTESIAN_POINT('',(0.E0,-7.75E-1,0.E0));
#524=DIRECTION('',(0.E0,1.E0,0.E0));
#525=DIRECTION('',(1.E0,0.E0,0.E0));
#526=AXIS2_PLACEMENT_3D('',#523,#524,#525);
#527=CYLINDRICAL_SURFACE('',#526,5.E0);
#529=ORIENTED_EDGE('',*,*,#528,.T.);
#530=ORIENTED_EDGE('',*,*,#518,.F.);
#532=ORIENTED_EDGE('',*,*,#531,.T.);
#533=ORIENTED_EDGE('',*,*,#514,.T.);
#534=EDGE_LOOP('',(#529,#530,#532,#533));
#535=FACE_OUTER_BOUND('',#534,.F.);
#536=ADVANCED_FACE('',(#535),#527,.F.);
#541=DIMENSIONAL_EXPONENTS(0.E0,0.E0,0.E0,0.E0,0.E0,0.E0,0.E0);
#543=PLANE_ANGLE_MEASURE_WITH_UNIT(PLANE_ANGLE_MEASURE(1.745329251994E-2),#542);
#544=(CONVERSION_BASED_UNIT('DEGREE',#543)NAMED_UNIT(*)PLANE_ANGLE_UNIT());
#546=UNCERTAINTY_MEASURE_WITH_UNIT(LENGTH_MEASURE(1.E-2),#540,'closure',
'Maximum model space distance between geometric entities at asserted connectivities');
#547=(GEOMETRIC_REPRESENTATION_CONTEXT(3)GLOBAL_UNCERTAINTY_ASSIGNED_CONTEXT((
#546))GLOBAL_UNIT_ASSIGNED_CONTEXT((#540,#544,#545))REPRESENTATION_CONTEXT
('ID1','3'));
#550=CARTESIAN_POINT('',(0.E0,0.E0,0.E0));
#551=DIRECTION('',(0.E0,0.E0,1.E0));
#552=DIRECTION('',(1.E0,0.E0,0.E0));
#555=SHAPE_REPRESENTATION_RELATIONSHIP('','',#554,#548);
#556=SHAPE_REPRESENTATION_RELATIONSHIP('','',#554,#549);
#557=APPLICATION_CONTEXT(
'CONFIGURATION CONTROLLED 3D DESIGNS OF MECHANICAL PARTS AND ASSEMBLIES');
#558=APPLICATION_PROTOCOL_DEFINITION('international standard',
'config_control_design',1994,#557);
#559=DESIGN_CONTEXT('',#557,'design');
#560=MECHANICAL_CONTEXT('',#557,'mechanical');
#561=PRODUCT('12_LOCKNUT','12_LOCKNUT','NOT SPECIFIED',(#560));
#562=PRODUCT_DEFINITION_FORMATION_WITH_SPECIFIED_SOURCE('1','LAST_VERSION',#561,
.MADE.);
#566=PRODUCT_CATEGORY('part','');
#567=PRODUCT_RELATED_PRODUCT_CATEGORY('detail','',(#561));
#568=PRODUCT_CATEGORY_RELATIONSHIP('','',#566,#567);
#569=SECURITY_CLASSIFICATION_LEVEL('unclassified');
#570=SECURITY_CLASSIFICATION('','',#569);
#571=CC_DESIGN_SECURITY_CLASSIFICATION(#570,(#562));
#572=APPROVAL_STATUS('approved');
#573=APPROVAL(#572,'');
#574=CC_DESIGN_APPROVAL(#573,(#570,#562,#563));
#575=CALENDAR_DATE(126,8,9);
#576=COORDINATED_UNIVERSAL_TIME_OFFSET(5,30,.AHEAD.);
#577=LOCAL_TIME(23,11,2.3E1,#576);
#578=DATE_AND_TIME(#575,#577);
#579=APPROVAL_DATE_TIME(#578,#573);
#580=DATE_TIME_ROLE('creation_date');
#581=CC_DESIGN_DATE_AND_TIME_ASSIGNMENT(#578,#580,(#563));
#582=DATE_TIME_ROLE('classification_date');
#583=CC_DESIGN_DATE_AND_TIME_ASSIGNMENT(#578,#582,(#570));
#584=PERSON('UNSPECIFIED','UNSPECIFIED',$,$,$,$);
#585=ORGANIZATION('UNSPECIFIED','UNSPECIFIED','UNSPECIFIED');
#586=PERSON_AND_ORGANIZATION(#584,#585);
#587=APPROVAL_ROLE('approver');
#588=APPROVAL_PERSON_ORGANIZATION(#586,#573,#587);
#589=PERSON_AND_ORGANIZATION_ROLE('creator');
#590=CC_DESIGN_PERSON_AND_ORGANIZATION_ASSIGNMENT(#586,#589,(#562,#563));
#591=PERSON_AND_ORGANIZATION_ROLE('design_supplier');
#592=CC_DESIGN_PERSON_AND_ORGANIZATION_ASSIGNMENT(#586,#591,(#562));
#593=PERSON_AND_ORGANIZATION_ROLE('classification_officer');
#594=CC_DESIGN_PERSON_AND_ORGANIZATION_ASSIGNMENT(#586,#593,(#570));
#595=PERSON_AND_ORGANIZATION_ROLE('design_owner');
#596=CC_DESIGN_PERSON_AND_ORGANIZATION_ASSIGNMENT(#586,#595,(#561));
#29=CIRCLE('',#28,4.5E0);
#34=CIRCLE('',#33,4.5E0);
#41=B_SPLINE_CURVE_WITH_KNOTS('',3,(#35,#36,#37,#38,#39,#40),.UNSPECIFIED.,.F.,
.F.,(4,1,1,4),(0.E0,3.333333333333E-1,6.666666666667E-1,1.E0),.UNSPECIFIED.);
#52=B_SPLINE_CURVE_WITH_KNOTS('',3,(#46,#47,#48,#49,#50,#51),.UNSPECIFIED.,.F.,
.F.,(4,1,1,4),(0.E0,3.333333333333E-1,6.666666666667E-1,1.E0),.UNSPECIFIED.);
#57=CIRCLE('',#56,8.660254037844E0);
#62=CIRCLE('',#61,8.660254037844E0);
#67=CIRCLE('',#66,8.660254037844E0);
#72=CIRCLE('',#71,8.660254037844E0);
#77=CIRCLE('',#76,8.660254037844E0);
#82=CIRCLE('',#81,8.660254037844E0);
#87=CIRCLE('',#86,4.5E0);
#92=CIRCLE('',#91,4.5E0);
#99=B_SPLINE_CURVE_WITH_KNOTS('',3,(#93,#94,#95,#96,#97,#98),.UNSPECIFIED.,.F.,
.F.,(4,1,1,4),(0.E0,3.333333333333E-1,6.666666666667E-1,1.E0),.UNSPECIFIED.);
#110=B_SPLINE_CURVE_WITH_KNOTS('',3,(#104,#105,#106,#107,#108,#109),
.UNSPECIFIED.,.F.,.F.,(4,1,1,4),(0.E0,3.333333333333E-1,6.666666666667E-1,1.E0),
.UNSPECIFIED.);
#117=B_SPLINE_CURVE_WITH_KNOTS('',3,(#111,#112,#113,#114,#115,#116),
.UNSPECIFIED.,.F.,.F.,(4,1,1,4),(0.E0,3.333333333333E-1,6.666666666667E-1,1.E0),
.UNSPECIFIED.);
#128=B_SPLINE_CURVE_WITH_KNOTS('',3,(#122,#123,#124,#125,#126,#127),
.UNSPECIFIED.,.F.,.F.,(4,1,1,4),(0.E0,3.333333333333E-1,6.666666666667E-1,1.E0),
.UNSPECIFIED.);
#135=B_SPLINE_CURVE_WITH_KNOTS('',3,(#129,#130,#131,#132,#133,#134),
.UNSPECIFIED.,.F.,.F.,(4,1,1,4),(0.E0,3.333333333333E-1,6.666666666667E-1,1.E0),
.UNSPECIFIED.);
#142=B_SPLINE_CURVE_WITH_KNOTS('',3,(#136,#137,#138,#139,#140,#141),
.UNSPECIFIED.,.F.,.F.,(4,1,1,4),(0.E0,3.333333333333E-1,6.666666666667E-1,1.E0),
.UNSPECIFIED.);
#153=B_SPLINE_CURVE_WITH_KNOTS('',3,(#147,#148,#149,#150,#151,#152),
.UNSPECIFIED.,.F.,.F.,(4,1,1,4),(0.E0,3.333333333333E-1,6.666666666667E-1,1.E0),
.UNSPECIFIED.);
#164=B_SPLINE_CURVE_WITH_KNOTS('',3,(#158,#159,#160,#161,#162,#163),
.UNSPECIFIED.,.F.,.F.,(4,1,1,4),(0.E0,3.333333333333E-1,6.666666666667E-1,1.E0),
.UNSPECIFIED.);
#171=B_SPLINE_CURVE_WITH_KNOTS('',3,(#165,#166,#167,#168,#169,#170),
.UNSPECIFIED.,.F.,.F.,(4,1,1,4),(0.E0,3.333333333333E-1,6.666666666667E-1,1.E0),
.UNSPECIFIED.);
#182=B_SPLINE_CURVE_WITH_KNOTS('',3,(#176,#177,#178,#179,#180,#181),
.UNSPECIFIED.,.F.,.F.,(4,1,1,4),(0.E0,3.333333333333E-1,6.666666666667E-1,1.E0),
.UNSPECIFIED.);
#234=EDGE_CURVE('',#193,#194,#4,.T.);
#236=EDGE_CURVE('',#194,#196,#8,.T.);
#238=EDGE_CURVE('',#196,#198,#12,.T.);
#240=EDGE_CURVE('',#198,#200,#16,.T.);
#242=EDGE_CURVE('',#200,#202,#20,.T.);
#244=EDGE_CURVE('',#202,#193,#24,.T.);
#248=EDGE_CURVE('',#223,#224,#29,.T.);
#250=EDGE_CURVE('',#224,#223,#34,.T.);
#260=EDGE_CURVE('',#215,#210,#41,.T.);
#262=EDGE_CURVE('',#194,#215,#175,.T.);
#265=EDGE_CURVE('',#193,#216,#45,.T.);
#267=EDGE_CURVE('',#210,#216,#52,.T.);
#277=EDGE_CURVE('',#205,#206,#57,.T.);
#279=EDGE_CURVE('',#205,#218,#135,.T.);
#281=EDGE_CURVE('',#218,#206,#153,.T.);
#291=EDGE_CURVE('',#206,#208,#62,.T.);
#293=EDGE_CURVE('',#206,#217,#164,.T.);
#295=EDGE_CURVE('',#217,#208,#171,.T.);
#305=EDGE_CURVE('',#208,#210,#67,.T.);
#307=EDGE_CURVE('',#208,#215,#182,.T.);
#321=EDGE_CURVE('',#210,#212,#72,.T.);
#323=EDGE_CURVE('',#212,#214,#77,.T.);
#325=EDGE_CURVE('',#214,#205,#82,.T.);
#329=EDGE_CURVE('',#227,#228,#87,.T.);
#331=EDGE_CURVE('',#228,#227,#92,.T.);
#343=EDGE_CURVE('',#216,#212,#99,.T.);
#354=EDGE_CURVE('',#212,#220,#110,.T.);
#356=EDGE_CURVE('',#220,#214,#117,.T.);
#367=EDGE_CURVE('',#214,#219,#128,.T.);
#369=EDGE_CURVE('',#219,#205,#142,.T.);
#382=EDGE_CURVE('',#202,#220,#103,.T.);
#396=EDGE_CURVE('',#200,#219,#121,.T.);
#411=EDGE_CURVE('',#198,#218,#146,.T.);
#424=EDGE_CURVE('',#196,#217,#157,.T.);
#449=EDGE_CURVE('',#224,#228,#190,.T.);
#452=EDGE_CURVE('',#223,#227,#186,.T.);
#469=CLOSED_SHELL('',(#254,#271,#285,#299,#312,#335,#347,#360,#373,#387,#401,
#415,#429,#442,#456,#468));
#475=CIRCLE('',#474,5.E0);
#480=CIRCLE('',#479,5.E0);
#485=CIRCLE('',#484,5.E0);
#494=CIRCLE('',#493,5.E0);
#512=EDGE_CURVE('',#501,#502,#475,.T.);
#514=EDGE_CURVE('',#506,#502,#498,.T.);
#516=EDGE_CURVE('',#506,#505,#480,.T.);
#518=EDGE_CURVE('',#505,#501,#489,.T.);
#528=EDGE_CURVE('',#502,#501,#485,.T.);
#531=EDGE_CURVE('',#505,#506,#494,.T.);
#537=OPEN_SHELL('',(#522,#536));
#538=MANIFOLD_SOLID_BREP('',#469);
#539=SHELL_BASED_SURFACE_MODEL('',(#537));
#540=(LENGTH_UNIT()NAMED_UNIT(*)SI_UNIT(.MILLI.,.METRE.));
#542=(NAMED_UNIT(*)PLANE_ANGLE_UNIT()SI_UNIT($,.RADIAN.));
#545=(NAMED_UNIT(*)SI_UNIT($,.STERADIAN.)SOLID_ANGLE_UNIT());
#548=ADVANCED_BREP_SHAPE_REPRESENTATION('',(#538),#547);
#549=MANIFOLD_SURFACE_SHAPE_REPRESENTATION('',(#539),#547);
#553=AXIS2_PLACEMENT_3D('',#550,#551,#552);
#554=SHAPE_REPRESENTATION('',(#553),#547);
#563=PRODUCT_DEFINITION('design','',#562,#559);
#564=PRODUCT_DEFINITION_SHAPE('','SHAPE FOR 12_LOCKNUT.',#563);
#565=SHAPE_DEFINITION_REPRESENTATION(#564,#554);
ENDSEC;
END-ISO-10303-21;
